<?xml version="1.0" encoding="UTF-8"?>
<svg id="Layer_1" xmlns="http://www.w3.org/2000/svg" version="1.1" viewBox="0 0 1007.2 355.7">
  <!-- Generator: Adobe Illustrator 29.0.0, SVG Export Plug-In . SVG Version: 2.1.0 Build 186)  -->
  <defs>
    <style>
      .st0, .st1 {
        fill: none;
      }

      .st2 {
        fill: #828282;
      }

      .st3 {
        fill: #16325b;
      }

      .st4, .st5 {
        fill: #4473a9;
      }

      .st6 {
        fill: #fff;
      }

      .st1, .st5 {
        fill-rule: evenodd;
      }
    </style>
  </defs>
  <g>
    <g>
      <g>
        <rect class="st0" x="922.4" y="260.6" width="6.2" height="7.3"/>
        <rect class="st0" x="922.4" y="260.6" width="6.2" height="7.3"/>
      </g>
      <rect class="st4" x="923.5" y="262.2" width="4" height="4"/>
      <rect class="st4" x="923.5" y="262.2" width="4" height="4"/>
    </g>
    <g>
      <g>
        <path class="st0" d="M928.6,267.8v3.4c0,.1,0,.3,0,.4,0,.8-.2,1.5-.3,2.2-.1.7-.3,1.4-.5,2l-6-1.7c.1-.5.3-1,.4-1.5,0-.5.2-1,.2-1.4v-3.4h6.2Z"/>
        <path class="st1" d="M921.9,274.2c.1-.5.3-1,.4-1.5,0-.5.2-1,.2-1.4v-3.4h6.2v3.4c0,.1,0,.3,0,.4,0,.8-.2,1.5-.3,2.2-.1.7-.3,1.4-.5,2l-6-1.7Z"/>
      </g>
      <path class="st4" d="M927.5,269.5v1.7c0,0,0,.3,0,.4,0,.8-.2,1.5-.3,2.2l-3.9-.8c.1-.6.2-1.2.2-1.7v-1.9h4Z"/>
      <path class="st5" d="M923.3,273c.1-.6.2-1.2.2-1.7v-1.9h4v1.7c0,0,0,.3,0,.4,0,.8-.2,1.5-.3,2.2l-3.9-.8Z"/>
    </g>
    <g>
      <g>
        <path class="st0" d="M927.9,275.9c-.8,2.7-2,5.3-3.8,7.5l-4.8-3.9c1.2-1.5,2.1-3.3,2.7-5.3l6,1.7Z"/>
        <path class="st1" d="M919.2,279.5c1.2-1.5,2.1-3.3,2.7-5.3l6,1.7c-.8,2.7-2,5.3-3.8,7.5l-4.8-3.9Z"/>
      </g>
      <path class="st4" d="M926.2,277.3c-.5,1.4-1.2,2.7-2,4l-3.3-2.2c.6-1,1.2-2,1.6-3.2l3.7,1.4Z"/>
      <path class="st5" d="M920.9,279c.6-1,1.2-2,1.6-3.2l3.7,1.4c-.5,1.4-1.2,2.7-2,4l-3.3-2.2Z"/>
    </g>
    <g>
      <g>
        <path class="st0" d="M924,283.4c-1.8,2.2-4.2,4.1-6.8,5.3l-2.6-5.7c1.8-.8,3.3-2,4.6-3.5l4.8,3.9Z"/>
        <path class="st1" d="M914.6,283c1.8-.8,3.3-2,4.6-3.5l4.8,3.9c-1.8,2.2-4.2,4.1-6.8,5.3l-2.6-5.7Z"/>
      </g>
      <path class="st4" d="M921.9,284.1c-1.1,1.1-2.3,2-3.6,2.7l-2-3.5c1-.6,1.9-1.3,2.7-2.1l2.8,2.8Z"/>
      <path class="st5" d="M916.4,283.3c1-.6,1.9-1.3,2.7-2.1l2.8,2.8c-1.1,1.1-2.3,2-3.6,2.7l-2-3.5Z"/>
    </g>
    <g>
      <g>
        <path class="st0" d="M917.2,288.7c-2.6,1.2-5.4,1.7-8.1,1.9l-.4-6.2c2.1-.2,4.2-.6,5.9-1.4l2.6,5.7Z"/>
        <path class="st1" d="M908.7,284.4c2.1-.2,4.2-.6,5.9-1.4l2.6,5.7c-2.6,1.2-5.4,1.7-8.1,1.9l-.4-6.2Z"/>
      </g>
      <path class="st4" d="M915,288.3c-1.4.5-2.8.8-4.3,1l-.5-4c1.2-.1,2.4-.4,3.5-.8l1.3,3.8Z"/>
      <path class="st5" d="M910.3,285.3c1.2-.1,2.4-.4,3.5-.8l1.3,3.8c-1.4.5-2.8.8-4.3,1l-.5-4Z"/>
    </g>
    <g>
      <g>
        <path class="st0" d="M909.1,290.6c-.7,0-1.3,0-2,0h-1.8s-3.6,0-3.6,0v-6.2h5.4c.5,0,1.1,0,1.6,0l.4,6.2Z"/>
        <path class="st1" d="M901.7,284.4h5.4c.5,0,1.1,0,1.6,0l.4,6.2c-.7,0-1.3,0-2,0h-1.8s-3.6,0-3.6,0v-6.2Z"/>
      </g>
      <polygon class="st4" points="907.3 289.6 903.3 289.6 903.3 285.6 907.3 285.6 907.3 289.6"/>
      <polygon class="st5" points="903.3 285.6 907.3 285.6 907.3 289.6 903.3 289.6 903.3 285.6"/>
    </g>
    <g>
      <g>
        <rect class="st0" x="894.4" y="284.4" width="7.2" height="6.2"/>
        <rect class="st0" x="894.4" y="284.4" width="7.2" height="6.2"/>
      </g>
      <rect class="st4" x="896" y="285.6" width="4" height="4"/>
      <rect class="st4" x="896" y="285.6" width="4" height="4"/>
    </g>
    <g>
      <g>
        <rect class="st0" x="887.2" y="284.4" width="7.2" height="6.2"/>
        <rect class="st0" x="887.2" y="284.4" width="7.2" height="6.2"/>
      </g>
      <rect class="st4" x="888.8" y="285.6" width="4" height="4"/>
      <rect class="st4" x="888.8" y="285.6" width="4" height="4"/>
    </g>
    <g>
      <g>
        <rect class="st0" x="879.9" y="284.4" width="7.2" height="6.2"/>
        <rect class="st0" x="879.9" y="284.4" width="7.2" height="6.2"/>
      </g>
      <rect class="st4" x="881.6" y="285.6" width="4" height="4"/>
      <rect class="st4" x="881.6" y="285.6" width="4" height="4"/>
    </g>
    <g>
      <g>
        <rect class="st0" x="872.7" y="284.4" width="7.2" height="6.2"/>
        <rect class="st0" x="872.7" y="284.4" width="7.2" height="6.2"/>
      </g>
      <rect class="st4" x="874.3" y="285.6" width="4" height="4"/>
      <rect class="st4" x="874.3" y="285.6" width="4" height="4"/>
    </g>
    <g>
      <g>
        <rect class="st0" x="865.4" y="284.4" width="7.2" height="6.2"/>
        <rect class="st0" x="865.4" y="284.4" width="7.2" height="6.2"/>
      </g>
      <rect class="st4" x="867.1" y="285.6" width="4" height="4"/>
      <rect class="st4" x="867.1" y="285.6" width="4" height="4"/>
    </g>
    <g>
      <g>
        <rect class="st0" x="858.2" y="284.4" width="7.2" height="6.2"/>
        <rect class="st0" x="858.2" y="284.4" width="7.2" height="6.2"/>
      </g>
      <rect class="st4" x="859.8" y="285.6" width="4" height="4"/>
      <rect class="st4" x="859.8" y="285.6" width="4" height="4"/>
    </g>
    <g>
      <g>
        <rect class="st0" x="850.9" y="284.4" width="7.2" height="6.2"/>
        <rect class="st0" x="850.9" y="284.4" width="7.2" height="6.2"/>
      </g>
      <rect class="st4" x="852.6" y="285.6" width="4" height="4"/>
      <rect class="st4" x="852.6" y="285.6" width="4" height="4"/>
    </g>
    <g>
      <g>
        <rect class="st0" x="843.5" y="284.4" width="7.2" height="6.2"/>
        <rect class="st0" x="843.5" y="284.4" width="7.2" height="6.2"/>
      </g>
      <rect class="st4" x="845.1" y="285.6" width="4" height="4"/>
      <rect class="st4" x="845.1" y="285.6" width="4" height="4"/>
    </g>
    <g>
      <g>
        <rect class="st0" x="836.3" y="284.4" width="7.2" height="6.2"/>
        <rect class="st0" x="836.3" y="284.4" width="7.2" height="6.2"/>
      </g>
      <rect class="st4" x="837.9" y="285.6" width="4" height="4"/>
      <rect class="st4" x="837.9" y="285.6" width="4" height="4"/>
    </g>
    <g>
      <g>
        <rect class="st0" x="829" y="284.4" width="7.2" height="6.2"/>
        <rect class="st0" x="829" y="284.4" width="7.2" height="6.2"/>
      </g>
      <rect class="st4" x="830.7" y="285.6" width="4" height="4"/>
      <rect class="st4" x="830.7" y="285.6" width="4" height="4"/>
    </g>
    <g>
      <g>
        <rect class="st0" x="821.8" y="284.4" width="7.2" height="6.2"/>
        <rect class="st0" x="821.8" y="284.4" width="7.2" height="6.2"/>
      </g>
      <rect class="st4" x="823.4" y="285.6" width="4" height="4"/>
      <rect class="st4" x="823.4" y="285.6" width="4" height="4"/>
    </g>
    <g>
      <g>
        <rect class="st0" x="814.5" y="284.4" width="7.2" height="6.2"/>
        <rect class="st0" x="814.5" y="284.4" width="7.2" height="6.2"/>
      </g>
      <rect class="st4" x="816.2" y="285.6" width="4" height="4"/>
      <rect class="st4" x="816.2" y="285.6" width="4" height="4"/>
    </g>
    <g>
      <g>
        <rect class="st0" x="807.3" y="284.4" width="7.2" height="6.2"/>
        <rect class="st0" x="807.3" y="284.4" width="7.2" height="6.2"/>
      </g>
      <rect class="st4" x="808.9" y="285.6" width="4" height="4"/>
      <rect class="st4" x="808.9" y="285.6" width="4" height="4"/>
    </g>
    <g>
      <g>
        <rect class="st0" x="800" y="284.4" width="7.2" height="6.2"/>
        <rect class="st0" x="800" y="284.4" width="7.2" height="6.2"/>
      </g>
      <rect class="st4" x="801.7" y="285.6" width="4" height="4"/>
      <rect class="st4" x="801.7" y="285.6" width="4" height="4"/>
    </g>
    <g>
      <g>
        <rect class="st0" x="792.8" y="284.4" width="7.2" height="6.2"/>
        <rect class="st0" x="792.8" y="284.4" width="7.2" height="6.2"/>
      </g>
      <rect class="st4" x="794.4" y="285.6" width="4" height="4"/>
      <rect class="st4" x="794.4" y="285.6" width="4" height="4"/>
    </g>
    <g>
      <g>
        <rect class="st0" x="785.6" y="284.4" width="7.2" height="6.2"/>
        <rect class="st0" x="785.6" y="284.4" width="7.2" height="6.2"/>
      </g>
      <rect class="st4" x="787.2" y="285.6" width="4" height="4"/>
      <rect class="st4" x="787.2" y="285.6" width="4" height="4"/>
    </g>
    <g>
      <g>
        <rect class="st0" x="778.1" y="284.4" width="7.2" height="6.2"/>
        <rect class="st0" x="778.1" y="284.4" width="7.2" height="6.2"/>
      </g>
      <rect class="st4" x="779.8" y="285.6" width="4" height="4"/>
      <rect class="st4" x="779.8" y="285.6" width="4" height="4"/>
    </g>
    <g>
      <g>
        <rect class="st0" x="770.9" y="284.4" width="7.2" height="6.2"/>
        <rect class="st0" x="770.9" y="284.4" width="7.2" height="6.2"/>
      </g>
      <rect class="st4" x="772.5" y="285.6" width="4" height="4"/>
      <rect class="st4" x="772.5" y="285.6" width="4" height="4"/>
    </g>
    <g>
      <g>
        <rect class="st0" x="763.6" y="284.4" width="7.2" height="6.2"/>
        <rect class="st0" x="763.6" y="284.4" width="7.2" height="6.2"/>
      </g>
      <rect class="st4" x="765.3" y="285.6" width="4" height="4"/>
      <rect class="st4" x="765.3" y="285.6" width="4" height="4"/>
    </g>
    <g>
      <g>
        <rect class="st0" x="756.4" y="284.4" width="7.2" height="6.2"/>
        <rect class="st0" x="756.4" y="284.4" width="7.2" height="6.2"/>
      </g>
      <rect class="st4" x="758" y="285.6" width="4" height="4"/>
      <rect class="st4" x="758" y="285.6" width="4" height="4"/>
    </g>
    <g>
      <g>
        <rect class="st0" x="749.1" y="284.4" width="7.2" height="6.2"/>
        <rect class="st0" x="749.1" y="284.4" width="7.2" height="6.2"/>
      </g>
      <rect class="st4" x="750.8" y="285.6" width="4" height="4"/>
      <rect class="st4" x="750.8" y="285.6" width="4" height="4"/>
    </g>
    <g>
      <g>
        <rect class="st0" x="741.9" y="284.4" width="7.2" height="6.2"/>
        <rect class="st0" x="741.9" y="284.4" width="7.2" height="6.2"/>
      </g>
      <rect class="st4" x="743.5" y="285.6" width="4" height="4"/>
      <rect class="st4" x="743.5" y="285.6" width="4" height="4"/>
    </g>
    <polygon class="st5" points="739.2 296.3 739.2 305 718.1 287.6 739.2 270.1 739.2 278.8 739.2 296.3"/>
  </g>
  <g>
    <g>
      <rect class="st0" x="731.3" y="53.3" width="7.9" height="7.9"/>
      <path class="st5" d="M735.3,53.3c2.2,0,4,1.8,4,3.9s-1.8,3.9-4,3.9-3.9-1.8-3.9-3.9,1.8-3.9,3.9-3.9Z"/>
    </g>
    <g>
      <g>
        <rect class="st0" x="922.4" y="84.2" width="6.2" height="7.3"/>
        <rect class="st0" x="922.4" y="84.2" width="6.2" height="7.3"/>
      </g>
      <rect class="st4" x="923.5" y="85.8" width="4" height="4"/>
      <rect class="st4" x="923.5" y="85.8" width="4" height="4"/>
    </g>
    <g>
      <g>
        <rect class="st0" x="922.4" y="77" width="6.2" height="7.3"/>
        <rect class="st0" x="922.4" y="77" width="6.2" height="7.3"/>
      </g>
      <rect class="st4" x="923.5" y="78.6" width="4" height="4"/>
      <rect class="st4" x="923.5" y="78.6" width="4" height="4"/>
    </g>
    <g>
      <g>
        <path class="st0" d="M928.6,77v-1.8s0-.9,0-.9v-.7c0-.1,0-.3,0-.4,0-.8-.2-1.5-.3-2.2-.1-.7-.3-1.4-.5-2l-6,1.7c.1.5.3,1,.4,1.5,0,.5.2,1,.2,1.4v3.4h6.2Z"/>
        <path class="st1" d="M921.9,70.6c.1.5.3,1,.4,1.5,0,.5.2,1,.2,1.4v3.4h6.2s0-1.8,0-1.8v-.9s0-.5,0-.5v-.2c0-.1,0-.3,0-.4,0-.8-.2-1.5-.3-2.2-.1-.7-.3-1.4-.5-2l-6,1.7Z"/>
      </g>
      <path class="st4" d="M927.5,75.3v-1s0-.5,0-.5v-.2c0,0,0-.3,0-.4,0-.8-.2-1.5-.3-2.2l-3.9.8c.1.6.2,1.2.2,1.7v1.9h4Z"/>
      <path class="st5" d="M923.3,71.7c.1.6.2,1.2.2,1.7v1.9h4s0-1,0-1v-.7c0,0,0-.3,0-.4,0-.8-.2-1.5-.3-2.2l-3.9.8Z"/>
    </g>
    <g>
      <g>
        <path class="st0" d="M927.9,68.9c-.8-2.7-2-5.3-3.8-7.5l-4.8,3.9c1.2,1.5,2.1,3.3,2.7,5.3l6-1.7Z"/>
        <path class="st1" d="M919.2,65.3c1.2,1.5,2.1,3.3,2.7,5.3l6-1.7c-.8-2.7-2-5.3-3.8-7.5l-4.8,3.9Z"/>
      </g>
      <path class="st4" d="M926.2,67.5c-.5-1.4-1.2-2.7-2-4l-3.3,2.2c.6,1,1.2,2,1.6,3.2l3.7-1.4Z"/>
      <path class="st5" d="M920.9,65.8c.6,1,1.2,2,1.6,3.2l3.7-1.4c-.5-1.4-1.2-2.7-2-4l-3.3,2.2Z"/>
    </g>
    <g>
      <g>
        <path class="st0" d="M924,61.4c-1.8-2.2-4.2-4.1-6.8-5.3l-2.6,5.7c1.8.8,3.3,2,4.6,3.5l4.8-3.9Z"/>
        <path class="st1" d="M914.6,61.8c1.8.8,3.3,2,4.6,3.5l4.8-3.9c-1.8-2.2-4.2-4.1-6.8-5.3l-2.6,5.7Z"/>
      </g>
      <path class="st4" d="M921.9,60.7c-1.1-1.1-2.3-2-3.6-2.7l-2,3.5c1,.6,1.9,1.3,2.7,2.1l2.8-2.8Z"/>
      <path class="st5" d="M916.4,61.4c1,.6,1.9,1.3,2.7,2.1l2.8-2.8c-1.1-1.1-2.3-2-3.6-2.7l-2,3.5Z"/>
    </g>
    <g>
      <g>
        <path class="st0" d="M917.2,56.1c-2.6-1.2-5.4-1.7-8.1-1.9l-.4,6.2c2.1.2,4.2.6,5.9,1.4l2.6-5.7Z"/>
        <path class="st1" d="M908.7,60.4c2.1.2,4.2.6,5.9,1.4l2.6-5.7c-2.6-1.2-5.4-1.7-8.1-1.9l-.4,6.2Z"/>
      </g>
      <path class="st4" d="M915,56.5c-1.4-.5-2.8-.8-4.3-1l-.5,4c1.2.1,2.4.4,3.5.8l1.3-3.8Z"/>
      <path class="st5" d="M910.3,59.4c1.2.1,2.4.4,3.5.8l1.3-3.8c-1.4-.5-2.8-.8-4.3-1l-.5,4Z"/>
    </g>
    <g>
      <g>
        <path class="st0" d="M909.1,54.2c-.7,0-1.3,0-2,0h-1.8s-3.6,0-3.6,0v6.2s3.6,0,3.6,0h1.8c.5,0,1.1,0,1.6,0l.4-6.2Z"/>
        <path class="st1" d="M901.7,60.3h3.6s1.8,0,1.8,0c.5,0,1.1,0,1.6,0l.4-6.2c-.7,0-1.3,0-2,0h-1.8s-3.6,0-3.6,0v6.2Z"/>
      </g>
      <polygon class="st4" points="907.3 55.2 903.3 55.2 903.3 59.2 907.3 59.2 907.3 55.2"/>
      <polygon class="st5" points="903.3 59.2 907.3 59.2 907.3 55.2 903.3 55.2 903.3 59.2"/>
    </g>
    <g>
      <g>
        <rect class="st0" x="894.4" y="54.1" width="7.2" height="6.2"/>
        <rect class="st0" x="894.4" y="54.1" width="7.2" height="6.2"/>
      </g>
      <rect class="st4" x="896" y="55.2" width="4" height="4"/>
      <rect class="st4" x="896" y="55.2" width="4" height="4"/>
    </g>
    <g>
      <g>
        <rect class="st0" x="887.2" y="54.1" width="7.2" height="6.2"/>
        <rect class="st0" x="887.2" y="54.1" width="7.2" height="6.2"/>
      </g>
      <rect class="st4" x="888.8" y="55.2" width="4" height="4"/>
      <rect class="st4" x="888.8" y="55.2" width="4" height="4"/>
    </g>
    <g>
      <g>
        <rect class="st0" x="879.9" y="54.1" width="7.2" height="6.2"/>
        <rect class="st0" x="879.9" y="54.1" width="7.2" height="6.2"/>
      </g>
      <rect class="st4" x="881.6" y="55.2" width="4" height="4"/>
      <rect class="st4" x="881.6" y="55.2" width="4" height="4"/>
    </g>
    <g>
      <g>
        <rect class="st0" x="872.7" y="54.1" width="7.2" height="6.2"/>
        <rect class="st0" x="872.7" y="54.1" width="7.2" height="6.2"/>
      </g>
      <rect class="st4" x="874.3" y="55.2" width="4" height="4"/>
      <rect class="st4" x="874.3" y="55.2" width="4" height="4"/>
    </g>
    <g>
      <g>
        <rect class="st0" x="865.4" y="54.1" width="7.2" height="6.2"/>
        <rect class="st0" x="865.4" y="54.1" width="7.2" height="6.2"/>
      </g>
      <rect class="st4" x="867.1" y="55.2" width="4" height="4"/>
      <rect class="st4" x="867.1" y="55.2" width="4" height="4"/>
    </g>
    <g>
      <g>
        <rect class="st0" x="858.2" y="54.1" width="7.2" height="6.2"/>
        <rect class="st0" x="858.2" y="54.1" width="7.2" height="6.2"/>
      </g>
      <rect class="st4" x="859.8" y="55.2" width="4" height="4"/>
      <rect class="st4" x="859.8" y="55.2" width="4" height="4"/>
    </g>
    <g>
      <g>
        <rect class="st0" x="850.9" y="54.1" width="7.2" height="6.2"/>
        <rect class="st0" x="850.9" y="54.1" width="7.2" height="6.2"/>
      </g>
      <rect class="st4" x="852.6" y="55.2" width="4" height="4"/>
      <rect class="st4" x="852.6" y="55.2" width="4" height="4"/>
    </g>
    <g>
      <g>
        <rect class="st0" x="843.5" y="54.1" width="7.2" height="6.2"/>
        <rect class="st0" x="843.5" y="54.1" width="7.2" height="6.2"/>
      </g>
      <rect class="st4" x="845.1" y="55.2" width="4" height="4"/>
      <rect class="st4" x="845.1" y="55.2" width="4" height="4"/>
    </g>
    <g>
      <g>
        <rect class="st0" x="836.3" y="54.1" width="7.2" height="6.2"/>
        <rect class="st0" x="836.3" y="54.1" width="7.2" height="6.2"/>
      </g>
      <rect class="st4" x="837.9" y="55.2" width="4" height="4"/>
      <rect class="st4" x="837.9" y="55.2" width="4" height="4"/>
    </g>
    <g>
      <g>
        <rect class="st0" x="829" y="54.1" width="7.2" height="6.2"/>
        <rect class="st0" x="829" y="54.1" width="7.2" height="6.2"/>
      </g>
      <rect class="st4" x="830.7" y="55.2" width="4" height="4"/>
      <rect class="st4" x="830.7" y="55.2" width="4" height="4"/>
    </g>
    <g>
      <g>
        <rect class="st0" x="821.8" y="54.1" width="7.2" height="6.2"/>
        <rect class="st0" x="821.8" y="54.1" width="7.2" height="6.2"/>
      </g>
      <rect class="st4" x="823.4" y="55.2" width="4" height="4"/>
      <rect class="st4" x="823.4" y="55.2" width="4" height="4"/>
    </g>
    <g>
      <g>
        <rect class="st0" x="814.5" y="54.1" width="7.2" height="6.2"/>
        <rect class="st0" x="814.5" y="54.1" width="7.2" height="6.2"/>
      </g>
      <rect class="st4" x="816.2" y="55.2" width="4" height="4"/>
      <rect class="st4" x="816.2" y="55.2" width="4" height="4"/>
    </g>
    <g>
      <g>
        <rect class="st0" x="807.3" y="54.1" width="7.2" height="6.2"/>
        <rect class="st0" x="807.3" y="54.1" width="7.2" height="6.2"/>
      </g>
      <rect class="st4" x="808.9" y="55.2" width="4" height="4"/>
      <rect class="st4" x="808.9" y="55.2" width="4" height="4"/>
    </g>
    <g>
      <g>
        <rect class="st0" x="800" y="54.1" width="7.2" height="6.2"/>
        <rect class="st0" x="800" y="54.1" width="7.2" height="6.2"/>
      </g>
      <rect class="st4" x="801.7" y="55.2" width="4" height="4"/>
      <rect class="st4" x="801.7" y="55.2" width="4" height="4"/>
    </g>
    <g>
      <g>
        <rect class="st0" x="792.8" y="54.1" width="7.2" height="6.2"/>
        <rect class="st0" x="792.8" y="54.1" width="7.2" height="6.2"/>
      </g>
      <rect class="st4" x="794.4" y="55.2" width="4" height="4"/>
      <rect class="st4" x="794.4" y="55.2" width="4" height="4"/>
    </g>
    <g>
      <g>
        <rect class="st0" x="785.6" y="54.1" width="7.2" height="6.2"/>
        <rect class="st0" x="785.6" y="54.1" width="7.2" height="6.2"/>
      </g>
      <rect class="st4" x="787.2" y="55.2" width="4" height="4"/>
      <rect class="st4" x="787.2" y="55.2" width="4" height="4"/>
    </g>
    <g>
      <g>
        <rect class="st0" x="778.1" y="54.1" width="7.2" height="6.2"/>
        <rect class="st0" x="778.1" y="54.1" width="7.2" height="6.2"/>
      </g>
      <rect class="st4" x="779.8" y="55.2" width="4" height="4"/>
      <rect class="st4" x="779.8" y="55.2" width="4" height="4"/>
    </g>
    <g>
      <g>
        <rect class="st0" x="770.9" y="54.1" width="7.2" height="6.2"/>
        <rect class="st0" x="770.9" y="54.1" width="7.2" height="6.2"/>
      </g>
      <rect class="st4" x="772.5" y="55.2" width="4" height="4"/>
      <rect class="st4" x="772.5" y="55.2" width="4" height="4"/>
    </g>
    <g>
      <g>
        <rect class="st0" x="763.6" y="54.1" width="7.2" height="6.2"/>
        <rect class="st0" x="763.6" y="54.1" width="7.2" height="6.2"/>
      </g>
      <rect class="st4" x="765.3" y="55.2" width="4" height="4"/>
      <rect class="st4" x="765.3" y="55.2" width="4" height="4"/>
    </g>
    <g>
      <g>
        <rect class="st0" x="756.4" y="54.1" width="7.2" height="6.2"/>
        <rect class="st0" x="756.4" y="54.1" width="7.2" height="6.2"/>
      </g>
      <rect class="st4" x="758" y="55.2" width="4" height="4"/>
      <rect class="st4" x="758" y="55.2" width="4" height="4"/>
    </g>
    <g>
      <g>
        <rect class="st0" x="749.1" y="54.1" width="7.2" height="6.2"/>
        <rect class="st0" x="749.1" y="54.1" width="7.2" height="6.2"/>
      </g>
      <rect class="st4" x="750.8" y="55.2" width="4" height="4"/>
      <rect class="st4" x="750.8" y="55.2" width="4" height="4"/>
    </g>
    <g>
      <g>
        <rect class="st0" x="741.9" y="54.1" width="7.2" height="6.2"/>
        <rect class="st0" x="741.9" y="54.1" width="7.2" height="6.2"/>
      </g>
      <rect class="st4" x="743.5" y="55.2" width="4" height="4"/>
      <rect class="st4" x="743.5" y="55.2" width="4" height="4"/>
    </g>
  </g>
  <g>
    <g>
      <g>
        <rect class="st0" x="78.1" y="84.2" width="6.2" height="7.3"/>
        <rect class="st0" x="78.1" y="84.2" width="6.2" height="7.3"/>
      </g>
      <rect class="st4" x="79.2" y="85.8" width="4" height="4"/>
      <rect class="st4" x="79.2" y="85.8" width="4" height="4"/>
    </g>
    <g>
      <g>
        <rect class="st0" x="78.1" y="77" width="6.2" height="7.3"/>
        <rect class="st0" x="78.1" y="77" width="6.2" height="7.3"/>
      </g>
      <rect class="st4" x="79.2" y="78.6" width="4" height="4"/>
      <rect class="st4" x="79.2" y="78.6" width="4" height="4"/>
    </g>
    <g>
      <g>
        <path class="st0" d="M78.1,77v-3.4c0-.1,0-.3,0-.4,0-.8.2-1.5.3-2.2.1-.7.3-1.4.5-2l6,1.7c-.1.5-.3,1-.4,1.5,0,.5-.2,1-.2,1.4v3.4h-6.2Z"/>
        <path class="st1" d="M84.9,70.6c-.1.5-.3,1-.4,1.5,0,.5-.2,1-.2,1.4v3.4h-6.2v-3.4c0-.1,0-.3,0-.4,0-.8.2-1.5.3-2.2.1-.7.3-1.4.5-2l6,1.7Z"/>
      </g>
      <path class="st4" d="M79.2,75.3v-1.7c0,0,0-.3,0-.4,0-.8.2-1.5.3-2.2l3.9.8c-.1.6-.2,1.2-.2,1.7v1.9h-4Z"/>
      <path class="st5" d="M83.5,71.7c-.1.6-.2,1.2-.2,1.7v1.9h-4v-1.7c0,0,0-.3,0-.4,0-.8.2-1.5.3-2.2l3.9.8Z"/>
    </g>
    <g>
      <g>
        <path class="st0" d="M78.9,68.9c.8-2.7,2-5.3,3.8-7.5l4.8,3.9c-1.2,1.5-2.1,3.3-2.7,5.3l-6-1.7Z"/>
        <path class="st1" d="M87.6,65.3c-1.2,1.5-2.1,3.3-2.7,5.3l-6-1.7c.8-2.7,2-5.3,3.8-7.5l4.8,3.9Z"/>
      </g>
      <path class="st4" d="M80.5,67.5c.5-1.4,1.2-2.7,2-4l3.3,2.2c-.6,1-1.2,2-1.6,3.2l-3.7-1.4Z"/>
      <path class="st5" d="M85.8,65.8c-.6,1-1.2,2-1.6,3.2l-3.7-1.4c.5-1.4,1.2-2.7,2-4l3.3,2.2Z"/>
    </g>
    <g>
      <g>
        <path class="st0" d="M82.7,61.4c1.8-2.2,4.2-4.1,6.8-5.3l2.6,5.7c-1.8.8-3.3,2-4.6,3.5l-4.8-3.9Z"/>
        <path class="st1" d="M92.1,61.8c-1.8.8-3.3,2-4.6,3.5l-4.8-3.9c1.8-2.2,4.2-4.1,6.8-5.3l2.6,5.7Z"/>
      </g>
      <path class="st4" d="M84.8,60.7c1.1-1.1,2.3-2,3.6-2.7l2,3.5c-1,.6-1.9,1.3-2.7,2.1l-2.8-2.8Z"/>
      <path class="st5" d="M90.4,61.4c-1,.6-1.9,1.3-2.7,2.1l-2.8-2.8c1.1-1.1,2.3-2,3.6-2.7l2,3.5Z"/>
    </g>
    <g>
      <g>
        <path class="st0" d="M89.5,56.1c2.6-1.2,5.4-1.7,8.1-1.9l.4,6.2c-2.1.2-4.2.6-5.9,1.4l-2.6-5.7Z"/>
        <path class="st1" d="M98.1,60.4c-2.1.2-4.2.6-5.9,1.4l-2.6-5.7c2.6-1.2,5.4-1.7,8.1-1.9l.4,6.2Z"/>
      </g>
      <path class="st4" d="M91.7,56.5c1.4-.5,2.8-.8,4.3-1l.5,4c-1.2.1-2.4.4-3.5.8l-1.3-3.8Z"/>
      <path class="st5" d="M96.5,59.4c-1.2.1-2.4.4-3.5.8l-1.3-3.8c1.4-.5,2.8-.8,4.3-1l.5,4Z"/>
    </g>
    <g>
      <g>
        <path class="st0" d="M97.6,54.2c.7,0,1.3,0,2,0h1.8s3.6,0,3.6,0v6.2h-5.4c-.5,0-1.1,0-1.6,0l-.4-6.2Z"/>
        <path class="st1" d="M105.1,60.3h-5.4c-.5,0-1.1,0-1.6,0l-.4-6.2c.7,0,1.3,0,2,0h1.8s3.6,0,3.6,0v6.2Z"/>
      </g>
      <polygon class="st4" points="99.4 55.2 103.5 55.2 103.5 59.2 99.5 59.2 99.4 55.2"/>
      <polygon class="st5" points="103.5 59.2 99.5 59.2 99.4 55.2 103.5 55.2 103.5 59.2"/>
    </g>
    <g>
      <g>
        <rect class="st0" x="105.1" y="54.1" width="7.2" height="6.2"/>
        <rect class="st0" x="105.1" y="54.1" width="7.2" height="6.2"/>
      </g>
      <rect class="st4" x="106.7" y="55.2" width="4" height="4"/>
      <rect class="st4" x="106.7" y="55.2" width="4" height="4"/>
    </g>
    <g>
      <g>
        <rect class="st0" x="112.3" y="54.1" width="7.2" height="6.2"/>
        <rect class="st0" x="112.3" y="54.1" width="7.2" height="6.2"/>
      </g>
      <rect class="st4" x="114" y="55.2" width="4" height="4"/>
      <rect class="st4" x="114" y="55.2" width="4" height="4"/>
    </g>
    <g>
      <g>
        <rect class="st0" x="119.6" y="54.1" width="7.2" height="6.2"/>
        <rect class="st0" x="119.6" y="54.1" width="7.2" height="6.2"/>
      </g>
      <rect class="st4" x="121.2" y="55.2" width="4" height="4"/>
      <rect class="st4" x="121.2" y="55.2" width="4" height="4"/>
    </g>
    <g>
      <g>
        <rect class="st0" x="126.8" y="54.1" width="7.2" height="6.2"/>
        <rect class="st0" x="126.8" y="54.1" width="7.2" height="6.2"/>
      </g>
      <rect class="st4" x="128.4" y="55.2" width="4" height="4"/>
      <rect class="st4" x="128.4" y="55.2" width="4" height="4"/>
    </g>
    <g>
      <g>
        <rect class="st0" x="134.1" y="54.1" width="7.2" height="6.2"/>
        <rect class="st0" x="134.1" y="54.1" width="7.2" height="6.2"/>
      </g>
      <rect class="st4" x="135.7" y="55.2" width="4" height="4"/>
      <rect class="st4" x="135.7" y="55.2" width="4" height="4"/>
    </g>
    <g>
      <g>
        <rect class="st0" x="141.3" y="54.1" width="7.2" height="6.2"/>
        <rect class="st0" x="141.3" y="54.1" width="7.2" height="6.2"/>
      </g>
      <rect class="st4" x="142.9" y="55.2" width="4" height="4"/>
      <rect class="st4" x="142.9" y="55.2" width="4" height="4"/>
    </g>
    <g>
      <g>
        <rect class="st0" x="148.5" y="54.1" width="7.2" height="6.2"/>
        <rect class="st0" x="148.5" y="54.1" width="7.2" height="6.2"/>
      </g>
      <rect class="st4" x="150.2" y="55.2" width="4" height="4"/>
      <rect class="st4" x="150.2" y="55.2" width="4" height="4"/>
    </g>
    <g>
      <g>
        <rect class="st0" x="156" y="54.1" width="7.2" height="6.2"/>
        <rect class="st0" x="156" y="54.1" width="7.2" height="6.2"/>
      </g>
      <rect class="st4" x="157.6" y="55.2" width="4" height="4"/>
      <rect class="st4" x="157.6" y="55.2" width="4" height="4"/>
    </g>
    <g>
      <g>
        <rect class="st0" x="163.2" y="54.1" width="7.2" height="6.2"/>
        <rect class="st0" x="163.2" y="54.1" width="7.2" height="6.2"/>
      </g>
      <rect class="st4" x="164.9" y="55.2" width="4" height="4"/>
      <rect class="st4" x="164.9" y="55.2" width="4" height="4"/>
    </g>
    <g>
      <g>
        <rect class="st0" x="170.5" y="54.1" width="7.2" height="6.2"/>
        <rect class="st0" x="170.5" y="54.1" width="7.2" height="6.2"/>
      </g>
      <rect class="st4" x="172.1" y="55.2" width="4" height="4"/>
      <rect class="st4" x="172.1" y="55.2" width="4" height="4"/>
    </g>
    <g>
      <g>
        <rect class="st0" x="177.7" y="54.1" width="7.2" height="6.2"/>
        <rect class="st0" x="177.7" y="54.1" width="7.2" height="6.2"/>
      </g>
      <rect class="st4" x="179.3" y="55.2" width="4" height="4"/>
      <rect class="st4" x="179.3" y="55.2" width="4" height="4"/>
    </g>
    <g>
      <g>
        <rect class="st0" x="185" y="54.1" width="7.2" height="6.2"/>
        <rect class="st0" x="185" y="54.1" width="7.2" height="6.2"/>
      </g>
      <rect class="st4" x="186.6" y="55.2" width="4" height="4"/>
      <rect class="st4" x="186.6" y="55.2" width="4" height="4"/>
    </g>
    <g>
      <g>
        <rect class="st0" x="192.2" y="54.1" width="7.2" height="6.2"/>
        <rect class="st0" x="192.2" y="54.1" width="7.2" height="6.2"/>
      </g>
      <rect class="st4" x="193.8" y="55.2" width="4" height="4"/>
      <rect class="st4" x="193.8" y="55.2" width="4" height="4"/>
    </g>
    <g>
      <g>
        <rect class="st0" x="199.5" y="54.1" width="7.2" height="6.2"/>
        <rect class="st0" x="199.5" y="54.1" width="7.2" height="6.2"/>
      </g>
      <rect class="st4" x="201.1" y="55.2" width="4" height="4"/>
      <rect class="st4" x="201.1" y="55.2" width="4" height="4"/>
    </g>
    <g>
      <g>
        <rect class="st0" x="206.7" y="54.1" width="7.2" height="6.2"/>
        <rect class="st0" x="206.7" y="54.1" width="7.2" height="6.2"/>
      </g>
      <rect class="st4" x="208.3" y="55.2" width="4" height="4"/>
      <rect class="st4" x="208.3" y="55.2" width="4" height="4"/>
    </g>
    <g>
      <g>
        <rect class="st0" x="213.9" y="54.1" width="7.2" height="6.2"/>
        <rect class="st0" x="213.9" y="54.1" width="7.2" height="6.2"/>
      </g>
      <rect class="st4" x="215.6" y="55.2" width="4" height="4"/>
      <rect class="st4" x="215.6" y="55.2" width="4" height="4"/>
    </g>
    <g>
      <g>
        <rect class="st0" x="221.4" y="54.1" width="7.2" height="6.2"/>
        <rect class="st0" x="221.4" y="54.1" width="7.2" height="6.2"/>
      </g>
      <rect class="st4" x="223" y="55.2" width="4" height="4"/>
      <rect class="st4" x="223" y="55.2" width="4" height="4"/>
    </g>
    <g>
      <g>
        <rect class="st0" x="228.6" y="54.1" width="7.2" height="6.2"/>
        <rect class="st0" x="228.6" y="54.1" width="7.2" height="6.2"/>
      </g>
      <rect class="st4" x="230.2" y="55.2" width="4" height="4"/>
      <rect class="st4" x="230.2" y="55.2" width="4" height="4"/>
    </g>
    <g>
      <g>
        <rect class="st0" x="235.9" y="54.1" width="7.2" height="6.2"/>
        <rect class="st0" x="235.9" y="54.1" width="7.2" height="6.2"/>
      </g>
      <rect class="st4" x="237.5" y="55.2" width="4" height="4"/>
      <rect class="st4" x="237.5" y="55.2" width="4" height="4"/>
    </g>
    <g>
      <g>
        <rect class="st0" x="243.1" y="54.1" width="7.2" height="6.2"/>
        <rect class="st0" x="243.1" y="54.1" width="7.2" height="6.2"/>
      </g>
      <rect class="st4" x="244.7" y="55.2" width="4" height="4"/>
      <rect class="st4" x="244.7" y="55.2" width="4" height="4"/>
    </g>
    <g>
      <g>
        <rect class="st0" x="250.4" y="54.1" width="7.2" height="6.2"/>
        <rect class="st0" x="250.4" y="54.1" width="7.2" height="6.2"/>
      </g>
      <rect class="st4" x="252" y="55.2" width="4" height="4"/>
      <rect class="st4" x="252" y="55.2" width="4" height="4"/>
    </g>
    <g>
      <g>
        <rect class="st0" x="257.6" y="54.1" width="7.2" height="6.2"/>
        <rect class="st0" x="257.6" y="54.1" width="7.2" height="6.2"/>
      </g>
      <rect class="st4" x="259.2" y="55.2" width="4" height="4"/>
      <rect class="st4" x="259.2" y="55.2" width="4" height="4"/>
    </g>
    <polygon class="st5" points="267.5 48.5 267.5 39.8 288.7 57.2 267.5 74.7 267.5 65.9 267.5 48.5"/>
  </g>
  <g>
    <g>
      <rect class="st0" x="437.7" y="53.3" width="7.9" height="7.9"/>
      <path class="st5" d="M441.7,53.3c-2.2,0-4,1.8-4,3.9s1.8,3.9,4,3.9,3.9-1.8,3.9-3.9-1.8-3.9-3.9-3.9Z"/>
    </g>
    <g>
      <g>
        <rect class="st0" x="448.1" y="54.1" width="7.2" height="6.2"/>
        <rect class="st0" x="448.1" y="54.1" width="7.2" height="6.2"/>
      </g>
      <rect class="st4" x="449.8" y="55.2" width="4" height="4"/>
      <rect class="st4" x="449.8" y="55.2" width="4" height="4"/>
    </g>
    <g>
      <g>
        <rect class="st0" x="455.4" y="54.1" width="7.2" height="6.2"/>
        <rect class="st0" x="455.4" y="54.1" width="7.2" height="6.2"/>
      </g>
      <rect class="st4" x="457" y="55.2" width="4" height="4"/>
      <rect class="st4" x="457" y="55.2" width="4" height="4"/>
    </g>
    <g>
      <g>
        <rect class="st0" x="462.6" y="54.1" width="7.2" height="6.2"/>
        <rect class="st0" x="462.6" y="54.1" width="7.2" height="6.2"/>
      </g>
      <rect class="st4" x="464.3" y="55.2" width="4" height="4"/>
      <rect class="st4" x="464.3" y="55.2" width="4" height="4"/>
    </g>
    <g>
      <g>
        <rect class="st0" x="469.9" y="54.1" width="7.2" height="6.2"/>
        <rect class="st0" x="469.9" y="54.1" width="7.2" height="6.2"/>
      </g>
      <rect class="st4" x="471.5" y="55.2" width="4" height="4"/>
      <rect class="st4" x="471.5" y="55.2" width="4" height="4"/>
    </g>
    <g>
      <g>
        <rect class="st0" x="477.1" y="54.1" width="7.2" height="6.2"/>
        <rect class="st0" x="477.1" y="54.1" width="7.2" height="6.2"/>
      </g>
      <rect class="st4" x="478.7" y="55.2" width="4" height="4"/>
      <rect class="st4" x="478.7" y="55.2" width="4" height="4"/>
    </g>
    <g>
      <g>
        <rect class="st0" x="484.4" y="54.1" width="7.2" height="6.2"/>
        <rect class="st0" x="484.4" y="54.1" width="7.2" height="6.2"/>
      </g>
      <rect class="st4" x="486" y="55.2" width="4" height="4"/>
      <rect class="st4" x="486" y="55.2" width="4" height="4"/>
    </g>
    <g>
      <g>
        <rect class="st0" x="491.6" y="54.1" width="7.2" height="6.2"/>
        <rect class="st0" x="491.6" y="54.1" width="7.2" height="6.2"/>
      </g>
      <rect class="st4" x="493.2" y="55.2" width="4" height="4"/>
      <rect class="st4" x="493.2" y="55.2" width="4" height="4"/>
    </g>
    <g>
      <g>
        <rect class="st0" x="498.9" y="54.1" width="7.2" height="6.2"/>
        <rect class="st0" x="498.9" y="54.1" width="7.2" height="6.2"/>
      </g>
      <rect class="st4" x="500.5" y="55.2" width="4" height="4"/>
      <rect class="st4" x="500.5" y="55.2" width="4" height="4"/>
    </g>
    <g>
      <g>
        <rect class="st0" x="506.1" y="54.1" width="7.2" height="6.2"/>
        <rect class="st0" x="506.1" y="54.1" width="7.2" height="6.2"/>
      </g>
      <rect class="st4" x="507.7" y="55.2" width="4" height="4"/>
      <rect class="st4" x="507.7" y="55.2" width="4" height="4"/>
    </g>
    <g>
      <g>
        <rect class="st0" x="513.5" y="54.1" width="7.2" height="6.2"/>
        <rect class="st0" x="513.5" y="54.1" width="7.2" height="6.2"/>
      </g>
      <rect class="st4" x="515.2" y="55.2" width="4" height="4"/>
      <rect class="st4" x="515.2" y="55.2" width="4" height="4"/>
    </g>
    <g>
      <g>
        <rect class="st0" x="520.8" y="54.1" width="7.2" height="6.2"/>
        <rect class="st0" x="520.8" y="54.1" width="7.2" height="6.2"/>
      </g>
      <rect class="st4" x="522.4" y="55.2" width="4" height="4"/>
      <rect class="st4" x="522.4" y="55.2" width="4" height="4"/>
    </g>
    <g>
      <g>
        <rect class="st0" x="528" y="54.1" width="7.2" height="6.2"/>
        <rect class="st0" x="528" y="54.1" width="7.2" height="6.2"/>
      </g>
      <rect class="st4" x="529.7" y="55.2" width="4" height="4"/>
      <rect class="st4" x="529.7" y="55.2" width="4" height="4"/>
    </g>
    <g>
      <g>
        <rect class="st0" x="535.3" y="54.1" width="7.2" height="6.2"/>
        <rect class="st0" x="535.3" y="54.1" width="7.2" height="6.2"/>
      </g>
      <rect class="st4" x="536.9" y="55.2" width="4" height="4"/>
      <rect class="st4" x="536.9" y="55.2" width="4" height="4"/>
    </g>
    <g>
      <g>
        <rect class="st0" x="542.5" y="54.1" width="7.2" height="6.2"/>
        <rect class="st0" x="542.5" y="54.1" width="7.2" height="6.2"/>
      </g>
      <rect class="st4" x="544.1" y="55.2" width="4" height="4"/>
      <rect class="st4" x="544.1" y="55.2" width="4" height="4"/>
    </g>
    <g>
      <g>
        <rect class="st0" x="549.8" y="54.1" width="7.2" height="6.2"/>
        <rect class="st0" x="549.8" y="54.1" width="7.2" height="6.2"/>
      </g>
      <rect class="st4" x="551.4" y="55.2" width="4" height="4"/>
      <rect class="st4" x="551.4" y="55.2" width="4" height="4"/>
    </g>
    <polygon class="st5" points="559.7 48.5 559.7 39.8 580.8 57.2 559.7 74.7 559.7 65.9 559.7 48.5"/>
  </g>
  <g>
    <g>
      <rect class="st0" x="572.9" y="283.6" width="7.9" height="7.9"/>
      <path class="st5" d="M576.9,291.5c2.2,0,4-1.8,4-3.9s-1.8-3.9-4-3.9-3.9,1.8-3.9,3.9,1.8,3.9,3.9,3.9Z"/>
    </g>
    <g>
      <g>
        <rect class="st0" x="563.2" y="284.4" width="7.2" height="6.2"/>
        <rect class="st0" x="563.2" y="284.4" width="7.2" height="6.2"/>
      </g>
      <rect class="st4" x="564.8" y="285.6" width="4" height="4"/>
      <rect class="st4" x="564.8" y="285.6" width="4" height="4"/>
    </g>
    <g>
      <g>
        <rect class="st0" x="555.9" y="284.4" width="7.2" height="6.2"/>
        <rect class="st0" x="555.9" y="284.4" width="7.2" height="6.2"/>
      </g>
      <rect class="st4" x="557.6" y="285.6" width="4" height="4"/>
      <rect class="st4" x="557.6" y="285.6" width="4" height="4"/>
    </g>
    <g>
      <g>
        <rect class="st0" x="548.7" y="284.4" width="7.2" height="6.2"/>
        <rect class="st0" x="548.7" y="284.4" width="7.2" height="6.2"/>
      </g>
      <rect class="st4" x="550.3" y="285.6" width="4" height="4"/>
      <rect class="st4" x="550.3" y="285.6" width="4" height="4"/>
    </g>
    <g>
      <g>
        <rect class="st0" x="541.4" y="284.4" width="7.2" height="6.2"/>
        <rect class="st0" x="541.4" y="284.4" width="7.2" height="6.2"/>
      </g>
      <rect class="st4" x="543.1" y="285.6" width="4" height="4"/>
      <rect class="st4" x="543.1" y="285.6" width="4" height="4"/>
    </g>
    <g>
      <g>
        <rect class="st0" x="534.2" y="284.4" width="7.2" height="6.2"/>
        <rect class="st0" x="534.2" y="284.4" width="7.2" height="6.2"/>
      </g>
      <rect class="st4" x="535.8" y="285.6" width="4" height="4"/>
      <rect class="st4" x="535.8" y="285.6" width="4" height="4"/>
    </g>
    <g>
      <g>
        <rect class="st0" x="527" y="284.4" width="7.2" height="6.2"/>
        <rect class="st0" x="527" y="284.4" width="7.2" height="6.2"/>
      </g>
      <rect class="st4" x="528.6" y="285.6" width="4" height="4"/>
      <rect class="st4" x="528.6" y="285.6" width="4" height="4"/>
    </g>
    <g>
      <g>
        <rect class="st0" x="519.7" y="284.4" width="7.2" height="6.2"/>
        <rect class="st0" x="519.7" y="284.4" width="7.2" height="6.2"/>
      </g>
      <rect class="st4" x="521.3" y="285.6" width="4" height="4"/>
      <rect class="st4" x="521.3" y="285.6" width="4" height="4"/>
    </g>
    <g>
      <g>
        <rect class="st0" x="512.5" y="284.4" width="7.2" height="6.2"/>
        <rect class="st0" x="512.5" y="284.4" width="7.2" height="6.2"/>
      </g>
      <rect class="st4" x="514.1" y="285.6" width="4" height="4"/>
      <rect class="st4" x="514.1" y="285.6" width="4" height="4"/>
    </g>
    <g>
      <g>
        <rect class="st0" x="505.2" y="284.4" width="7.2" height="6.2"/>
        <rect class="st0" x="505.2" y="284.4" width="7.2" height="6.2"/>
      </g>
      <rect class="st4" x="506.8" y="285.6" width="4" height="4"/>
      <rect class="st4" x="506.8" y="285.6" width="4" height="4"/>
    </g>
    <g>
      <g>
        <rect class="st0" x="497.8" y="284.4" width="7.2" height="6.2"/>
        <rect class="st0" x="497.8" y="284.4" width="7.2" height="6.2"/>
      </g>
      <rect class="st4" x="499.4" y="285.6" width="4" height="4"/>
      <rect class="st4" x="499.4" y="285.6" width="4" height="4"/>
    </g>
    <g>
      <g>
        <rect class="st0" x="490.5" y="284.4" width="7.2" height="6.2"/>
        <rect class="st0" x="490.5" y="284.4" width="7.2" height="6.2"/>
      </g>
      <rect class="st4" x="492.2" y="285.6" width="4" height="4"/>
      <rect class="st4" x="492.2" y="285.6" width="4" height="4"/>
    </g>
    <g>
      <g>
        <rect class="st0" x="483.3" y="284.4" width="7.2" height="6.2"/>
        <rect class="st0" x="483.3" y="284.4" width="7.2" height="6.2"/>
      </g>
      <rect class="st4" x="484.9" y="285.6" width="4" height="4"/>
      <rect class="st4" x="484.9" y="285.6" width="4" height="4"/>
    </g>
    <g>
      <g>
        <rect class="st0" x="476" y="284.4" width="7.2" height="6.2"/>
        <rect class="st0" x="476" y="284.4" width="7.2" height="6.2"/>
      </g>
      <rect class="st4" x="477.7" y="285.6" width="4" height="4"/>
      <rect class="st4" x="477.7" y="285.6" width="4" height="4"/>
    </g>
    <g>
      <g>
        <rect class="st0" x="468.8" y="284.4" width="7.2" height="6.2"/>
        <rect class="st0" x="468.8" y="284.4" width="7.2" height="6.2"/>
      </g>
      <rect class="st4" x="470.4" y="285.6" width="4" height="4"/>
      <rect class="st4" x="470.4" y="285.6" width="4" height="4"/>
    </g>
    <g>
      <g>
        <rect class="st0" x="461.6" y="284.4" width="7.2" height="6.2"/>
        <rect class="st0" x="461.6" y="284.4" width="7.2" height="6.2"/>
      </g>
      <rect class="st4" x="463.2" y="285.6" width="4" height="4"/>
      <rect class="st4" x="463.2" y="285.6" width="4" height="4"/>
    </g>
    <polygon class="st5" points="458.9 296.3 458.9 305 437.7 287.6 458.9 270.1 458.9 278.8 458.9 296.3"/>
  </g>
  <g>
    <path class="st4" d="M687.8,316.3c-.6.3-1.3.5-2,.5h-68.4c-2.4,0-4.3-1.9-4.3-4.3v-88.3c0-1.6.9-3.1,2.4-3.9.6-.3,1.3-.5,2-.5h68.4c1.2,0,2.3.4,3.1,1.3.8.8,1.3,1.9,1.3,3.1v88.3c0,1.6-.9,3.1-2.4,3.9ZM617.6,312.3h68s0-87.9,0-87.9h-68s0,87.9,0,87.9Z"/>
    <line class="st4" x1="647.8" y1="246" x2="675.4" y2="246"/>
    <path class="st4" d="M676.4,248c-.3.2-.7.2-1,.2h-27.6c-1.3,0-2.3-1-2.3-2.3,0-1.3,1-2.3,2.3-2.3h27.6c1.3,0,2.3,1,2.3,2.3,0,.9-.5,1.7-1.2,2Z"/>
    <line class="st4" x1="647.8" y1="268.6" x2="675.4" y2="268.6"/>
    <path class="st4" d="M676.4,270.6c-.3.2-.7.2-1,.2h-27.6c-1.3,0-2.3-1-2.3-2.3,0-1.3,1-2.3,2.3-2.3h27.6c1.3,0,2.3,1,2.3,2.3,0,.9-.5,1.7-1.2,2Z"/>
    <path class="st4" d="M631.6,254.3c-.3.1-.6.2-.9.2-.7,0-1.3-.2-1.8-.7l-5.7-6.2c-.8-.9-.8-2.4.1-3.2.9-.9,2.4-.8,3.2.1l3.8,4.1,7.7-10.7c.7-1,2.2-1.3,3.2-.5,1,.7,1.3,2.2.5,3.2l-9.3,12.9c-.2.3-.5.5-.8.7Z"/>
    <path class="st4" d="M631.6,277c-.3.1-.6.2-.9.2-.7,0-1.4-.2-1.8-.7l-5.7-6.2c-.9-.9-.8-2.4.1-3.2.9-.9,2.4-.8,3.2.1l3.8,4.1,7.7-10.7c.7-1,2.2-1.3,3.2-.5,1,.7,1.3,2.2.5,3.2l-9.3,12.9c-.2.3-.5.5-.8.7Z"/>
    <path class="st4" d="M631.6,299.8c-.3.1-.6.2-.9.2-.7,0-1.3-.2-1.8-.7l-5.7-6.2c-.8-.9-.8-2.4.1-3.2.9-.9,2.4-.8,3.2.1l3.8,4.1,7.7-10.7c.7-1,2.2-1.3,3.2-.5,1,.7,1.3,2.2.5,3.2l-9.3,12.9c-.2.3-.5.5-.8.7Z"/>
    <line class="st4" x1="647.8" y1="291.6" x2="675.4" y2="291.5"/>
    <path class="st4" d="M676.4,293.6c-.3.2-.7.2-1,.2h-27.6c-1.3,0-2.3-1-2.3-2.3,0-1.3,1-2.3,2.3-2.3h27.6c1.3,0,2.3,1,2.3,2.3,0,.9-.5,1.7-1.2,2Z"/>
  </g>
  <g>
    <path class="st2" d="M611.4,333.7h2.9l3.9,12.4h0l4-12.4h2.8l-5.4,15.7h-3.1l-5.2-15.7Z"/>
    <path class="st2" d="M634.6,346.9c0,.3,0,.5.1.7,0,.1.2.2.5.2h.3c.1,0,.2,0,.4,0v1.7c0,0-.2,0-.3,0-.1,0-.3,0-.4,0s-.3,0-.4,0c-.1,0-.3,0-.4,0-.5,0-.9-.1-1.3-.3-.3-.2-.6-.6-.7-1.1-.5.5-1.1.8-1.8,1.1-.7.2-1.4.3-2.1.3s-1,0-1.5-.2c-.5-.1-.9-.3-1.2-.6s-.6-.6-.9-1c-.2-.4-.3-.9-.3-1.5s.1-1.3.4-1.7.6-.8,1-1c.4-.2.9-.4,1.4-.5.5-.1,1-.2,1.6-.3.5,0,.9-.2,1.3-.2.4,0,.8,0,1.1-.2.3,0,.6-.2.7-.4s.3-.5.3-.8,0-.6-.2-.8c-.2-.2-.3-.4-.6-.5-.2-.1-.5-.2-.8-.2-.3,0-.5,0-.8,0-.7,0-1.3.1-1.7.4-.5.3-.7.7-.8,1.4h-2.5c0-.7.2-1.3.5-1.8.3-.5.7-.9,1.2-1.2s1-.5,1.6-.6,1.2-.2,1.8-.2,1.1,0,1.7.2c.5.1,1,.3,1.5.6.4.3.8.6,1,1s.4.9.4,1.5v5.9ZM632.1,343.7c-.4.2-.9.4-1.4.5-.6,0-1.1.1-1.7.2-.3,0-.5.1-.8.2-.2,0-.5.2-.7.3-.2.1-.3.3-.5.6-.1.2-.2.5-.2.8s0,.5.2.7c.2.2.4.3.6.5.2.1.5.2.7.2.3,0,.5,0,.7,0s.6,0,.9-.1c.3,0,.6-.2.9-.4s.5-.4.7-.7c.2-.3.3-.6.3-1v-1.9Z"/>
    <path class="st2" d="M637.3,333.7h2.5v15.7h-2.5v-15.7Z"/>
    <path class="st2" d="M642.6,333.7h2.5v2.4h-2.5v-2.4ZM642.6,338h2.5v11.4h-2.5v-11.4Z"/>
    <path class="st2" d="M658.6,349.4h-2.4v-1.5h0c-.3.7-.8,1.1-1.5,1.4-.6.3-1.3.4-2,.4s-1.7-.2-2.3-.5c-.7-.3-1.2-.7-1.7-1.3-.4-.5-.8-1.2-1-1.9s-.3-1.5-.3-2.4.1-1.9.4-2.7.6-1.4,1.1-1.8c.5-.5,1-.8,1.6-1.1.6-.2,1.2-.3,1.8-.3s.7,0,1.1,0c.4,0,.7.2,1.1.3.3.1.6.3.9.6.3.2.5.5.7.8h0v-5.8h2.5v15.7ZM649.8,343.9c0,.5,0,1,.2,1.4.1.5.3.9.6,1.3.3.4.6.7,1,.9.4.2.9.3,1.4.3s1-.1,1.4-.4c.4-.2.7-.5,1-.9.3-.4.4-.8.6-1.3.1-.5.2-1,.2-1.5,0-1.3-.3-2.2-.8-2.9s-1.3-1.1-2.3-1.1-1.1.1-1.5.4-.7.6-1,.9c-.3.4-.4.8-.6,1.3-.1.5-.2,1-.2,1.5Z"/>
    <path class="st2" d="M670.8,346.9c0,.3,0,.5.1.7,0,.1.2.2.5.2h.3c.1,0,.2,0,.4,0v1.7c0,0-.2,0-.3,0-.1,0-.3,0-.4,0s-.3,0-.4,0c-.1,0-.3,0-.4,0-.5,0-.9-.1-1.3-.3-.3-.2-.6-.6-.7-1.1-.5.5-1.1.8-1.8,1.1-.7.2-1.4.3-2.1.3s-1,0-1.5-.2c-.5-.1-.9-.3-1.2-.6s-.6-.6-.9-1c-.2-.4-.3-.9-.3-1.5s.1-1.3.4-1.7.6-.8,1-1c.4-.2.9-.4,1.4-.5.5-.1,1-.2,1.6-.3.5,0,.9-.2,1.3-.2.4,0,.8,0,1.1-.2.3,0,.6-.2.7-.4s.3-.5.3-.8,0-.6-.2-.8c-.2-.2-.3-.4-.6-.5-.2-.1-.5-.2-.8-.2-.3,0-.5,0-.8,0-.7,0-1.3.1-1.7.4-.5.3-.7.7-.8,1.4h-2.5c0-.7.2-1.3.5-1.8.3-.5.7-.9,1.2-1.2s1-.5,1.6-.6,1.2-.2,1.8-.2,1.1,0,1.7.2c.5.1,1,.3,1.5.6.4.3.8.6,1,1s.4.9.4,1.5v5.9ZM668.3,343.7c-.4.2-.9.4-1.4.5-.6,0-1.1.1-1.7.2-.3,0-.5.1-.8.2-.2,0-.5.2-.7.3-.2.1-.3.3-.5.6-.1.2-.2.5-.2.8s0,.5.2.7c.2.2.4.3.6.5.2.1.5.2.7.2.3,0,.5,0,.7,0s.6,0,.9-.1c.3,0,.6-.2.9-.4s.5-.4.7-.7c.2-.3.3-.6.3-1v-1.9Z"/>
    <path class="st2" d="M672.4,338h1.9v-3.4h2.5v3.4h2.3v1.9h-2.3v6.1c0,.3,0,.5,0,.7,0,.2,0,.4.2.5,0,.1.2.2.4.3.2,0,.4,0,.7,0s.4,0,.5,0c.2,0,.4,0,.5,0v1.9c-.3,0-.5,0-.8,0-.3,0-.5,0-.8,0-.7,0-1.2,0-1.6-.2-.4-.1-.7-.3-.9-.5s-.4-.5-.5-.9c0-.4-.1-.8-.1-1.3v-6.7h-1.9v-1.9Z"/>
    <path class="st2" d="M682.8,344.4c0,.4,0,.9.2,1.3.1.4.3.8.6,1.1.2.3.6.6.9.7.4.2.8.3,1.4.3s1.3-.2,1.8-.5c.4-.3.8-.8,1-1.4h2.4c-.1.6-.4,1.2-.7,1.7-.3.5-.7.9-1.2,1.2-.5.3-1,.6-1.5.7-.6.2-1.2.3-1.8.3-.9,0-1.7-.1-2.4-.4s-1.3-.7-1.7-1.2c-.5-.5-.8-1.2-1.1-1.9-.2-.7-.4-1.5-.4-2.4s.1-1.6.4-2.3c.3-.7.6-1.4,1.1-1.9.5-.6,1.1-1,1.7-1.3.7-.3,1.4-.5,2.3-.5s1.7.2,2.4.6c.7.4,1.3.9,1.8,1.5.5.6.8,1.3,1,2.1.2.8.3,1.6.2,2.5h-8.4ZM688.7,342.7c0-.4-.1-.8-.3-1.1s-.3-.7-.6-1c-.2-.3-.5-.5-.9-.7s-.7-.3-1.2-.3-.8,0-1.2.2c-.4.2-.7.4-.9.6-.3.3-.5.6-.6,1-.2.4-.2.8-.3,1.2h5.9Z"/>
  </g>
  <g>
    <path class="st4" d="M364.7,228.2c.7,0,1.2.6,1.2,1.2v18.9c0,.7-.6,1.2-1.2,1.2h-18.9c-.7,0-1.2-.6-1.2-1.2v-18.9c0-.7.6-1.2,1.2-1.2h18.9M364.7,223.8h-18.9c-3.1,0-5.6,2.5-5.6,5.6v18.9c0,3.1,2.5,5.6,5.6,5.6h18.9c3.1,0,5.6-2.5,5.6-5.6v-18.9c0-3.1-2.5-5.6-5.6-5.6Z"/>
    <path class="st4" d="M327,288.5c.7,0,1.2.6,1.2,1.2v18.9c0,.7-.6,1.2-1.2,1.2h-18.9c-.7,0-1.2-.6-1.2-1.2v-18.9c0-.7.6-1.2,1.2-1.2h18.9M327,284.1h-18.9c-3.1,0-5.6,2.5-5.6,5.6v18.9c0,3.1,2.5,5.6,5.6,5.6h18.9c3.1,0,5.6-2.5,5.6-5.6v-18.9c0-3.1-2.5-5.6-5.6-5.6Z"/>
    <path class="st4" d="M364.7,288.5c.7,0,1.2.6,1.2,1.2v18.9c0,.7-.6,1.2-1.2,1.2h-18.9c-.7,0-1.2-.6-1.2-1.2v-18.9c0-.7.6-1.2,1.2-1.2h18.9M364.7,284.1h-18.9c-3.1,0-5.6,2.5-5.6,5.6v18.9c0,3.1,2.5,5.6,5.6,5.6h18.9c3.1,0,5.6-2.5,5.6-5.6v-18.9c0-3.1-2.5-5.6-5.6-5.6Z"/>
    <path class="st4" d="M402.4,288.5c.7,0,1.2.6,1.2,1.2v18.9c0,.7-.6,1.2-1.2,1.2h-18.9c-.7,0-1.2-.6-1.2-1.2v-18.9c0-.7.6-1.2,1.2-1.2h18.9M402.4,284.1h-18.9c-3.1,0-5.6,2.5-5.6,5.6v18.9c0,3.1,2.5,5.6,5.6,5.6h18.9c3.1,0,5.6-2.5,5.6-5.6v-18.9c0-3.1-2.5-5.6-5.6-5.6Z"/>
    <polyline class="st4" points="353.1 251.9 353.1 286.3 357.4 286.3 357.4 251.9"/>
    <polygon class="st4" points="319.9 286.5 319.9 272.2 390.6 272.2 390.6 285 395 285 395 267.8 315.5 267.8 315.5 286.5 319.9 286.5 319.9 286.5"/>
  </g>
  <g>
    <path class="st2" d="M321.3,333.7h6.5c1.2,0,2.2.2,3.1.6s1.6,1,2.2,1.7c.6.7,1,1.5,1.2,2.5.3,1,.4,2,.4,3.1s-.1,2.1-.4,3.1c-.3,1-.7,1.8-1.2,2.5-.6.7-1.3,1.3-2.2,1.7-.9.4-1.9.6-3.1.6h-6.5v-15.7ZM324,347.2h2.7c1.1,0,1.9-.1,2.6-.4.7-.3,1.2-.7,1.6-1.2s.7-1.1.8-1.8c.1-.7.2-1.4.2-2.2s0-1.5-.2-2.2c-.1-.7-.4-1.3-.8-1.8s-.9-.9-1.6-1.2c-.7-.3-1.6-.4-2.6-.4h-2.7v11.2Z"/>
    <path class="st2" d="M338.8,344.4c0,.4,0,.9.2,1.3.1.4.3.8.6,1.1.2.3.6.6.9.7.4.2.8.3,1.4.3s1.3-.2,1.8-.5c.4-.3.8-.8,1-1.4h2.4c-.1.6-.4,1.2-.7,1.7-.3.5-.7.9-1.2,1.2-.5.3-1,.6-1.5.7s-1.2.3-1.8.3c-.9,0-1.7-.1-2.4-.4s-1.3-.7-1.7-1.2c-.5-.5-.8-1.2-1.1-1.9-.2-.7-.4-1.5-.4-2.4s.1-1.6.4-2.3c.3-.7.6-1.4,1.1-1.9.5-.6,1.1-1,1.7-1.3.7-.3,1.4-.5,2.3-.5s1.7.2,2.4.6c.7.4,1.3.9,1.8,1.5.5.6.8,1.3,1,2.1s.3,1.6.2,2.5h-8.4ZM344.6,342.7c0-.4-.1-.8-.3-1.1-.1-.4-.3-.7-.6-1s-.5-.5-.9-.7-.7-.3-1.2-.3-.8,0-1.2.2c-.4.2-.7.4-.9.6s-.5.6-.6,1c-.2.4-.2.8-.3,1.2h5.9Z"/>
    <path class="st2" d="M349.1,338h2.4v1.5h0c.4-.7.8-1.1,1.5-1.4.6-.3,1.3-.4,2-.4s1.7.2,2.3.5c.7.3,1.2.7,1.7,1.3.4.6.8,1.2,1,1.9.2.7.3,1.5.3,2.4s0,1.5-.3,2.2c-.2.7-.5,1.4-.9,1.9-.4.6-.9,1-1.5,1.3-.6.3-1.3.5-2.2.5s-.7,0-1.1,0c-.4,0-.7-.2-1.1-.3-.3-.1-.6-.3-.9-.6-.3-.2-.5-.5-.7-.8h0v5.7h-2.5v-15.6ZM357.9,343.7c0-.5,0-1-.2-1.5-.1-.5-.3-.9-.6-1.3-.3-.4-.6-.7-1-.9-.4-.2-.9-.3-1.4-.3-1.1,0-1.9.4-2.4,1.1-.5.7-.8,1.7-.8,2.9s0,1.1.2,1.6c.1.5.3.9.6,1.3.3.4.6.6,1,.8.4.2.8.3,1.4.3s1.1-.1,1.5-.4c.4-.2.7-.5,1-.9.3-.4.4-.8.6-1.3.1-.5.2-1,.2-1.5Z"/>
    <path class="st2" d="M362.5,333.7h2.5v15.7h-2.5v-15.7Z"/>
    <path class="st2" d="M373,349.7c-.9,0-1.7-.2-2.4-.4-.7-.3-1.3-.7-1.8-1.2s-.9-1.2-1.1-1.9c-.3-.7-.4-1.5-.4-2.4s.1-1.7.4-2.4c.3-.7.6-1.4,1.1-1.9s1.1-.9,1.8-1.2c.7-.3,1.5-.4,2.4-.4s1.7.2,2.4.4c.7.3,1.3.7,1.8,1.2s.9,1.2,1.1,1.9c.3.7.4,1.5.4,2.4s-.1,1.7-.4,2.4c-.3.7-.6,1.4-1.1,1.9s-1.1.9-1.8,1.2c-.7.3-1.5.4-2.4.4ZM373,347.8c.6,0,1-.1,1.5-.4.4-.2.7-.5,1-.9.3-.4.5-.8.6-1.3.1-.5.2-1,.2-1.5s0-1-.2-1.5c-.1-.5-.3-.9-.6-1.3-.3-.4-.6-.7-1-.9-.4-.2-.9-.4-1.5-.4s-1,.1-1.5.4c-.4.2-.7.5-1,.9-.3.4-.5.8-.6,1.3-.1.5-.2,1-.2,1.5s0,1,.2,1.5c.1.5.3.9.6,1.3.3.4.6.7,1,.9.4.2.9.4,1.5.4Z"/>
    <path class="st2" d="M379.6,338h2.8l3,8.5h0l2.9-8.5h2.6l-4.4,12c-.2.5-.4,1-.6,1.5-.2.5-.4.9-.7,1.2-.3.4-.6.6-1.1.9-.4.2-1,.3-1.6.3s-1.2,0-1.7-.1v-2.1c.2,0,.4,0,.6,0,.2,0,.4,0,.6,0,.3,0,.5,0,.7-.1.2,0,.3-.2.5-.3.1-.1.2-.3.3-.5,0-.2.2-.4.2-.7l.3-.9-4.3-11.3Z"/>
  </g>
  <g>
    <path class="st2" d="M304.4,113.9h6.5c1.2,0,2.2.2,3.1.6s1.6,1,2.2,1.7c.6.7,1,1.5,1.2,2.5.3,1,.4,2,.4,3.1s-.1,2.1-.4,3.1c-.3,1-.7,1.8-1.2,2.5-.6.7-1.3,1.3-2.2,1.7-.9.4-1.9.6-3.1.6h-6.5v-15.7ZM307.1,127.3h2.7c1.1,0,1.9-.1,2.6-.4s1.2-.7,1.6-1.2.7-1.1.8-1.8c.1-.7.2-1.4.2-2.2s0-1.5-.2-2.2c-.1-.7-.4-1.3-.8-1.8s-.9-.9-1.6-1.2-1.6-.4-2.6-.4h-2.7v11.2Z"/>
    <path class="st2" d="M325.1,129.9c-.9,0-1.7-.2-2.4-.5-.7-.3-1.3-.7-1.8-1.2-.5-.5-.9-1.2-1.1-1.9-.3-.7-.4-1.5-.4-2.4s.1-1.7.4-2.4.6-1.4,1.1-1.9c.5-.5,1.1-.9,1.8-1.2.7-.3,1.5-.5,2.4-.5s1.7.2,2.4.5c.7.3,1.3.7,1.8,1.2.5.5.9,1.2,1.1,1.9s.4,1.5.4,2.4-.1,1.7-.4,2.4c-.3.7-.6,1.4-1.1,1.9-.5.5-1.1.9-1.8,1.2-.7.3-1.5.5-2.4.5ZM325.1,127.9c.6,0,1-.1,1.5-.4.4-.2.7-.5,1-.9.3-.4.5-.8.6-1.3.1-.5.2-1,.2-1.5s0-1-.2-1.5c-.1-.5-.3-.9-.6-1.3-.3-.4-.6-.7-1-.9-.4-.2-.9-.4-1.5-.4s-1,.1-1.5.4c-.4.2-.7.5-1,.9-.3.4-.5.8-.6,1.3-.1.5-.2,1-.2,1.5s0,1,.2,1.5c.1.5.3.9.6,1.3.3.4.6.7,1,.9.4.2.9.4,1.5.4Z"/>
    <path class="st2" d="M340.6,122c-.1-.7-.4-1.2-.8-1.6s-1-.5-1.7-.5-.7,0-1,.2c-.4.1-.7.3-1,.6-.3.3-.6.7-.8,1.3-.2.5-.3,1.2-.3,2.1s0,.9.2,1.4c.1.5.3.9.5,1.3.2.4.6.7.9.9.4.2.8.3,1.4.3s1.3-.2,1.8-.7c.5-.5.8-1.1.9-1.9h2.5c-.2,1.5-.8,2.6-1.7,3.4-.9.8-2.1,1.2-3.5,1.2s-1.7-.2-2.4-.5c-.7-.3-1.3-.7-1.7-1.2-.5-.5-.8-1.1-1.1-1.9-.2-.7-.4-1.5-.4-2.3s.1-1.6.4-2.4c.2-.7.6-1.4,1.1-1.9s1.1-1,1.7-1.3c.7-.3,1.5-.5,2.5-.5s1.3,0,1.9.3,1.1.4,1.6.8c.5.3.8.8,1.1,1.3.3.5.5,1.1.5,1.8h-2.5Z"/>
    <path class="st2" d="M355.2,129.6h-2.5v-1.6h0c-.3.6-.8,1-1.4,1.4s-1.2.5-1.9.5c-1.5,0-2.6-.4-3.2-1.1-.7-.7-1-1.9-1-3.4v-7.2h2.5v7c0,1,.2,1.7.6,2.1.4.4.9.6,1.6.6s1,0,1.3-.2c.4-.2.6-.4.9-.6.2-.3.4-.6.5-1,0-.4.1-.8.1-1.2v-6.6h2.5v11.4Z"/>
    <path class="st2" d="M357.8,118.2h2.4v1.6h0c.2-.3.4-.5.6-.8.2-.2.5-.4.7-.6.3-.2.6-.3.9-.4.4,0,.8-.1,1.2-.1.7,0,1.3.2,1.9.5.6.3,1,.8,1.3,1.4.4-.6.9-1,1.5-1.4.6-.3,1.3-.5,2.1-.5,1.2,0,2.1.3,2.8.9.7.6,1,1.6,1,2.9v7.9h-2.5v-6.6c0-.5,0-.9,0-1.2,0-.4-.1-.7-.3-1-.1-.3-.3-.5-.6-.6-.3-.1-.7-.2-1.1-.2-.9,0-1.5.3-1.8.8-.4.5-.6,1.3-.6,2.2v6.7h-2.5v-7.3c0-.8-.1-1.4-.4-1.8-.3-.4-.8-.6-1.6-.6s-.6,0-.9.2-.6.3-.8.6c-.2.2-.4.6-.5.9s-.2.8-.2,1.3v6.8h-2.5v-11.4Z"/>
    <path class="st2" d="M378.9,124.5c0,.4,0,.9.2,1.3.1.4.3.8.6,1.1.2.3.6.6.9.7.4.2.8.3,1.4.3s1.3-.2,1.8-.5.8-.8,1-1.4h2.4c-.1.6-.4,1.2-.7,1.7-.3.5-.7.9-1.2,1.2-.5.3-1,.6-1.5.7-.6.2-1.2.3-1.8.3-.9,0-1.7-.1-2.4-.4s-1.3-.7-1.7-1.2c-.5-.5-.8-1.2-1.1-1.9-.2-.7-.4-1.5-.4-2.4s.1-1.6.4-2.3c.3-.7.6-1.4,1.1-1.9.5-.6,1.1-1,1.7-1.3.7-.3,1.4-.5,2.3-.5s1.7.2,2.4.6c.7.4,1.3.9,1.8,1.5s.8,1.3,1,2.1c.2.8.3,1.6.2,2.5h-8.4ZM384.8,122.9c0-.4-.1-.8-.3-1.1-.1-.4-.3-.7-.6-1-.2-.3-.5-.5-.9-.7-.3-.2-.7-.3-1.2-.3s-.8,0-1.2.2c-.4.2-.7.4-.9.6-.3.3-.5.6-.6,1-.2.4-.2.8-.3,1.2h5.9Z"/>
    <path class="st2" d="M389.2,118.2h2.4v1.7h0c.4-.6.9-1.1,1.5-1.4.6-.4,1.3-.5,2-.5,1.2,0,2.2.3,2.9,1s1.1,1.6,1.1,2.9v7.8h-2.5v-7.2c0-.9-.2-1.5-.6-1.9-.4-.4-.9-.6-1.6-.6s-.8,0-1.1.2c-.3.2-.6.4-.9.6-.2.3-.4.6-.6,1-.1.4-.2.8-.2,1.2v6.7h-2.5v-11.4Z"/>
    <path class="st2" d="M400.7,118.2h1.9v-3.4h2.5v3.4h2.3v1.9h-2.3v6.1c0,.3,0,.5,0,.7,0,.2,0,.4.2.5,0,.1.2.2.4.3.2,0,.4,0,.7,0s.4,0,.5,0c.2,0,.4,0,.5,0v1.9c-.3,0-.5,0-.8,0-.3,0-.5,0-.8,0-.7,0-1.2,0-1.6-.2-.4-.1-.7-.3-.9-.5s-.4-.5-.5-.9c0-.4-.1-.8-.1-1.3v-6.7h-1.9v-1.9Z"/>
  </g>
  <g>
    <path class="st4" d="M391.5,96.5c-.6.3-1.3.5-2,.5h-68.4c-2.4,0-4.3-1.9-4.3-4.3V4.4c0-1.6.9-3.1,2.4-3.9.6-.3,1.3-.5,2-.5h68.4c1.2,0,2.3.4,3.1,1.3.8.8,1.3,1.9,1.3,3.1v88.3c0,1.6-.9,3.1-2.4,3.9ZM321.3,92.4h68s0-87.9,0-87.9h-68s0,87.9,0,87.9Z"/>
    <line class="st4" x1="351.4" y1="26.2" x2="379" y2="26.2"/>
    <path class="st4" d="M380,28.2c-.3.2-.7.2-1,.2h-27.6c-1.3,0-2.3-1-2.3-2.3,0-1.3,1-2.3,2.3-2.3h27.6c1.3,0,2.3,1,2.3,2.3,0,.9-.5,1.7-1.2,2Z"/>
    <line class="st4" x1="351.4" y1="48.7" x2="379" y2="48.7"/>
    <path class="st4" d="M380,50.7c-.3.2-.7.2-1,.2h-27.6c-1.3,0-2.3-1-2.3-2.3,0-1.3,1-2.3,2.3-2.3h27.6c1.3,0,2.3,1,2.3,2.3,0,.9-.5,1.7-1.2,2Z"/>
    <line class="st4" x1="351.4" y1="71.7" x2="379" y2="71.7"/>
    <path class="st4" d="M380,73.7c-.3.2-.7.2-1,.2h-27.6c-1.3,0-2.3-1-2.3-2.3,0-1.3,1-2.3,2.3-2.3h27.6c1.3,0,2.3,1,2.3,2.3,0,.9-.5,1.7-1.2,2Z"/>
    <rect class="st4" x="329.4" y="19.3" width="13.2" height="13.2"/>
    <rect class="st4" x="329.4" y="42.1" width="13.2" height="13.2"/>
    <rect class="st4" x="329.4" y="64.8" width="13.2" height="13.2"/>
  </g>
  <g>
    <path class="st2" d="M627.2,113.9h7.6c1.4,0,2.5.3,3.4,1,.9.6,1.3,1.6,1.3,2.9s-.2,1.5-.6,2c-.4.6-.9,1-1.7,1.3h0c1,.2,1.7.7,2.2,1.4.5.7.7,1.6.7,2.7s-.1,1.2-.3,1.7c-.2.5-.6,1-1,1.4-.5.4-1.1.7-1.8.9s-1.6.3-2.6.3h-7.2v-15.7ZM630,120.5h4.5c.7,0,1.2-.2,1.7-.6.4-.4.7-.9.7-1.6s-.2-1.3-.6-1.7c-.4-.3-1-.5-1.7-.5h-4.5v4.3ZM630,127.3h4.9c.8,0,1.5-.2,1.9-.6s.7-1,.7-1.8-.2-1.4-.7-1.8-1.1-.6-1.9-.6h-4.9v4.9Z"/>
    <path class="st2" d="M652.4,129.6h-2.5v-1.6h0c-.3.6-.8,1-1.4,1.4s-1.2.5-1.9.5c-1.5,0-2.6-.4-3.2-1.1-.7-.7-1-1.9-1-3.4v-7.2h2.5v7c0,1,.2,1.7.6,2.1.4.4.9.6,1.6.6s1,0,1.3-.2c.4-.2.6-.4.9-.6.2-.3.4-.6.5-1,0-.4.1-.8.1-1.2v-6.6h2.5v11.4Z"/>
    <path class="st2" d="M655.1,113.9h2.5v2.4h-2.5v-2.4ZM655.1,118.2h2.5v11.4h-2.5v-11.4Z"/>
    <path class="st2" d="M660.4,113.9h2.5v15.7h-2.5v-15.7Z"/>
    <path class="st2" d="M676.3,129.6h-2.4v-1.5h0c-.3.7-.8,1.1-1.5,1.4s-1.3.4-2,.4-1.7-.2-2.3-.5c-.7-.3-1.2-.7-1.7-1.3-.4-.5-.8-1.2-1-1.9-.2-.7-.3-1.5-.3-2.4s.1-1.9.4-2.7.6-1.4,1.1-1.8c.5-.5,1-.8,1.6-1.1s1.2-.3,1.8-.3.7,0,1.1,0c.4,0,.7.2,1.1.3.3.1.6.3.9.6s.5.5.7.8h0v-5.8h2.5v15.7ZM667.6,124c0,.5,0,1,.2,1.4.1.5.3.9.6,1.3.3.4.6.7,1,.9.4.2.9.3,1.4.3s1-.1,1.4-.4c.4-.2.7-.5,1-.9.3-.4.4-.8.6-1.3.1-.5.2-1,.2-1.5,0-1.3-.3-2.2-.8-2.9-.6-.7-1.3-1.1-2.3-1.1s-1.1.1-1.5.4-.7.6-1,.9c-.3.4-.4.8-.6,1.3-.1.5-.2,1-.2,1.5Z"/>
  </g>
  <g>
    <path class="st4" d="M698.7,78.8h-1.7c0,2.5-.6,4.9-1.7,6.9-1.1,2-2.6,3.8-4.4,5l.2.3v-.4c0,0-.2,0-.2,0l.2.3v-.4s0,.4,0,.4l.3-.3c0,0-.2-.1-.3-.1v.4l.3-.3-.3.3.4-.2s0,0,0-.1l-.3.3.4-.2h-.3c0,.1.3.1.3.1,0,0,0,0,0-.1h-.3c0,.1.3.1.3.1v-5.6c0-2.3-.9-4.3-2.3-5.8-.7-.8-1.6-1.4-2.5-1.8-1-.4-2-.7-3.1-.7-1.1,0-2.2.2-3.1.7-1.4.6-2.7,1.7-3.5,3-.8,1.3-1.3,2.9-1.3,4.6v5.6h.3-.3c0,0,0,0,0,0h.3-.3c0-.1.4,0,.4,0l-.2-.3c0,0-.1.1-.1.2l.4.2-.2-.3.2.4v-.4c0,0-.2,0-.2,0l.2.4v-.4s0,.4,0,.4l.2-.3s-.1,0-.2,0v.4l.2-.3c-1.8-1.3-3.4-3-4.4-5-1.1-2-1.7-4.4-1.7-6.9,0-2.9.8-5.6,2.2-7.8,1.4-2.2,3.4-4,5.7-5.1.6-.3.9-.9.9-1.5V29.7c0-.6-.4-1.2-.9-1.5-2.3-1.1-4.3-2.9-5.7-5.1-1.4-2.2-2.2-4.9-2.2-7.8,0-2.5.6-4.9,1.7-6.9,1.1-2,2.6-3.8,4.4-5l-.2-.3v.4c0,0,.2,0,.2,0l-.2-.3v.4-.4l-.3.3c0,0,.2.1.3.1v-.4l-.3.3.3-.3-.4.2s0,0,0,.1l.3-.3-.4.2h.3c0-.1-.3-.1-.3-.1,0,0,0,0,0,.1h.3c0-.1-.3-.1-.3-.1v5.6c0,2.3.9,4.3,2.3,5.8.7.8,1.6,1.4,2.5,1.8,1,.4,2,.7,3.1.7,1.1,0,2.2-.2,3.1-.7,1.4-.6,2.7-1.7,3.5-3,.8-1.3,1.3-2.9,1.3-4.6V3h-.3.3c0,0,0,0,0,0h-.3.3c0,.1-.4,0-.4,0l.2.3c0,0,.1-.1.1-.2l-.4-.2.2.3-.2-.4v.4c0,0,.2,0,.2,0l-.2-.4v.4s0-.4,0-.4l-.2.3s.1,0,.2,0v-.4l-.2.3c1.8,1.3,3.4,3,4.4,5,1.1,2,1.7,4.4,1.7,6.9,0,2.9-.8,5.6-2.2,7.8-1.4,2.2-3.4,4-5.7,5.1-.6.3-.9.9-.9,1.5v34.7c0,.6.4,1.2.9,1.5,2.3,1.1,4.3,2.9,5.7,5.1,1.4,2.2,2.2,4.9,2.2,7.8h3.4c0-3.5-1-6.8-2.7-9.6-1.7-2.8-4.2-5-7.1-6.4l-.7,1.5h1.7V29.7h-1.7l.7,1.5c2.9-1.4,5.3-3.6,7.1-6.4,1.7-2.8,2.7-6,2.7-9.6,0-3.1-.7-5.9-2.1-8.5-1.3-2.5-3.2-4.7-5.5-6.2-.5-.3-1.1-.5-1.7-.5-.8,0-1.5.3-2.1.9-.3.3-.5.6-.6,1-.2.4-.2.8-.2,1.2v5.6c0,1.4-.5,2.6-1.4,3.5-.4.4-.9.8-1.5,1-.5.2-1.1.4-1.8.4-.6,0-1.2-.1-1.8-.4-.8-.4-1.5-1-2-1.8-.5-.8-.8-1.7-.8-2.8V3c0-.4,0-.8-.2-1.2-.2-.6-.6-1-1.1-1.3-.5-.3-1-.5-1.6-.5-.6,0-1.2.2-1.7.5-2.3,1.6-4.2,3.7-5.5,6.2-1.3,2.5-2.1,5.4-2.1,8.5,0,3.5,1,6.8,2.7,9.6,1.7,2.8,4.2,5,7.1,6.4l.7-1.5h-1.7v34.7h1.7l-.7-1.5c-2.9,1.4-5.3,3.6-7.1,6.4-1.7,2.8-2.7,6-2.7,9.6,0,3.1.7,5.9,2.1,8.5,1.3,2.5,3.2,4.7,5.5,6.2.5.3,1.1.5,1.7.5.8,0,1.5-.3,2.1-.9.3-.3.5-.6.6-1,.2-.4.2-.8.2-1.2v-5.6c0-1.4.5-2.6,1.4-3.5.4-.4.9-.8,1.5-1,.5-.2,1.1-.4,1.8-.4.6,0,1.2.1,1.8.4.8.4,1.5,1,2,1.8.5.8.8,1.7.8,2.8v5.6c0,.4,0,.8.2,1.2.2.6.6,1,1.1,1.3.5.3,1,.5,1.6.5.6,0,1.2-.2,1.7-.5,2.3-1.6,4.2-3.7,5.5-6.2,1.3-2.5,2.1-5.4,2.1-8.5h-1.7Z"/>
    <path class="st4" d="M644.2,16.8v-1.7c-1.2,0-2.2.4-3.1,1.1-.9.7-1.5,1.6-1.8,2.7l-.4,1.6c0,.4-.3.7-.6.9-.3.2-.6.4-1,.4h-9.9c-.4,0-.7-.1-1-.4-.3-.2-.5-.5-.6-.9l-.4-1.5c-.3-1.1-.9-2.1-1.8-2.7-.9-.7-1.9-1.1-3.1-1.1-.1,0-.2,0-.4,0h0c-5.9.4-10.1,2.2-12.8,3.9-2.7,1.7-3.9,3.3-4,3.4l1.3,1h1.7c0-1.7.2-3.2.6-4.6.6-2.1,1.5-3.9,2.7-5.5,1.2-1.6,2.6-3,4.1-4.2,2.4-1.9,5.1-3.4,8-4.4,2.9-1,6-1.5,9.1-1.5h6.7c.4,0,.7.1,1,.3.3.2.5.5.6.8v.4c.8,2.1,2.8,3.4,4.9,3.4h0c.9,0,1.8-.2,2.6-.7.8-.4,1.5-1.1,1.9-1.9.1-.2.4-.4.6-.6.2-.1.5-.2.8-.2h5c.2,0,.5,0,.7.1.3.1.6.3.7.6.2.3.3.6.3.9v10.1c0,.2,0,.5-.1.7-.1.3-.3.6-.6.7-.3.2-.6.3-.9.3h-5c-.3,0-.6,0-.9-.2-.3-.2-.5-.4-.6-.7-.2-.4-.5-.8-.8-1.1-.5-.5-1-.8-1.6-1-.6-.2-1.2-.3-1.8-.3v3.4c.3,0,.6,0,.8.2.1,0,.2.1.3.2,0,0,.1.2.2.2.4.8,1.1,1.5,1.8,2,.8.5,1.7.8,2.6.7h5c.7,0,1.4-.1,2-.4.9-.4,1.7-1,2.2-1.8.5-.8.9-1.8.9-2.8V6.7c0-.7-.1-1.4-.4-2-.4-.9-1-1.7-1.8-2.2-.8-.5-1.8-.9-2.8-.9h-5c-.9,0-1.8.2-2.5.7-.7.4-1.4,1-1.8,1.8-.2.3-.4.5-.7.7-.3.2-.6.2-1,.2h0c-.4,0-.7-.1-1-.3-.3-.2-.5-.5-.6-.8v-.4C641.6,1.4,639.6,0,637.5,0h-6.7c-3.5,0-6.9.5-10.2,1.6-3.3,1.1-6.4,2.7-9.1,4.9-2.2,1.8-4.4,4.1-6,6.9-.8,1.4-1.4,2.9-1.9,4.6-.5,1.7-.7,3.5-.7,5.4,0,.7.5,1.4,1.1,1.6s1.4,0,1.9-.6l-.9-.7.9.7h0s-.9-.7-.9-.7l.9.7h0s0,0,0,0h0s0,0,0,0h0s1-1.3,3.3-2.7c2.3-1.4,5.9-2.9,11.1-3.2h0s0,0,.1,0c.4,0,.7.1,1,.4.3.2.5.5.6.9l.4,1.5c.3,1.1.9,2.1,1.8,2.7.9.7,1.9,1.1,3.1,1.1h9.9c1.2,0,2.2-.4,3.1-1.1.9-.7,1.5-1.6,1.8-2.7l.4-1.6c0-.4.3-.7.6-.9.3-.2.6-.4,1-.4v-1.7Z"/>
    <path class="st4" d="M636.7,30.2l1.4,58.8h0s0,0,0,0c0,.2,0,.4-.1.6-.1.3-.3.6-.6.7-.3.2-.6.3-.9.3h-8.2c-.2,0-.4,0-.6-.1-.3-.1-.6-.3-.7-.6-.2-.3-.3-.6-.3-.9h0s0,0,0,0l1.4-58.8c0-.9-.7-1.7-1.6-1.7-.9,0-1.7.7-1.7,1.6l-1.4,58.8h0s0,0,0,.1c0,.7.1,1.4.4,2,.4.9,1,1.7,1.8,2.2.8.5,1.8.9,2.8.9h8.2c.7,0,1.4-.1,2-.4.9-.4,1.7-1,2.2-1.8.5-.8.9-1.8.9-2.8,0,0,0,0,0-.1h0s-1.4-58.8-1.4-58.8c0-.9-.8-1.7-1.7-1.6-.9,0-1.7.8-1.6,1.7h0Z"/>
  </g>
  <g>
    <g>
      <rect class="st0" x="267.5" y="283.7" width="7.9" height="7.9"/>
      <path class="st5" d="M271.5,291.6c-2.2,0-4-1.8-4-3.9s1.8-3.9,4-3.9,3.9,1.8,3.9,3.9-1.8,3.9-3.9,3.9Z"/>
    </g>
    <g>
      <g>
        <rect class="st0" x="78.1" y="260.7" width="6.2" height="7.3"/>
        <rect class="st0" x="78.1" y="260.7" width="6.2" height="7.3"/>
      </g>
      <rect class="st4" x="79.2" y="262.3" width="4" height="4"/>
      <rect class="st4" x="79.2" y="262.3" width="4" height="4"/>
    </g>
    <g>
      <g>
        <path class="st0" d="M78.1,268v1.8s0,.9,0,.9v.5s0,.2,0,.2c0,.1,0,.3,0,.4,0,.8.2,1.5.3,2.2.1.7.3,1.4.5,2l6-1.7c-.1-.5-.3-1-.4-1.5,0-.5-.2-1-.2-1.4v-3.4h-6.2Z"/>
        <path class="st1" d="M84.9,274.3c-.1-.5-.3-1-.4-1.5,0-.5-.2-1-.2-1.4v-3.4h-6.2s0,1.8,0,1.8v.9s0,.5,0,.5v.2c0,.1,0,.3,0,.4,0,.8.2,1.5.3,2.2.1.7.3,1.4.5,2l6-1.7Z"/>
      </g>
      <path class="st4" d="M79.2,269.6v1s0,.5,0,.5v.2c0,0,0,.3,0,.4,0,.8.2,1.5.3,2.2l3.9-.8c-.1-.6-.2-1.2-.2-1.7v-1.9h-4Z"/>
      <path class="st5" d="M83.4,273.2c-.1-.6-.2-1.2-.2-1.7v-1.9h-4s0,1,0,1v.5s0,.2,0,.2c0,0,0,.3,0,.4,0,.8.2,1.5.3,2.2l3.9-.8Z"/>
    </g>
    <g>
      <g>
        <path class="st0" d="M78.9,276c.8,2.7,2,5.3,3.8,7.5l4.8-3.9c-1.2-1.5-2.1-3.3-2.7-5.3l-6,1.7Z"/>
        <path class="st1" d="M87.5,279.6c-1.2-1.5-2.1-3.3-2.7-5.3l-6,1.7c.8,2.7,2,5.3,3.8,7.5l4.8-3.9Z"/>
      </g>
      <path class="st4" d="M80.5,277.4c.5,1.4,1.2,2.7,2,4l3.3-2.2c-.6-1-1.2-2-1.6-3.2l-3.7,1.4Z"/>
      <path class="st5" d="M85.8,279.2c-.6-1-1.2-2-1.6-3.2l-3.7,1.4c.5,1.4,1.2,2.7,2,4l3.3-2.2Z"/>
    </g>
    <g>
      <g>
        <path class="st0" d="M82.7,283.5c1.8,2.2,4.2,4.1,6.8,5.3l2.6-5.7c-1.8-.8-3.3-2-4.6-3.5l-4.8,3.9Z"/>
        <path class="st1" d="M92.1,283.1c-1.8-.8-3.3-2-4.6-3.5l-4.8,3.9c1.8,2.2,4.2,4.1,6.8,5.3l2.6-5.7Z"/>
      </g>
      <path class="st4" d="M84.8,284.2c1.1,1.1,2.3,2,3.6,2.7l2-3.5c-1-.6-1.9-1.3-2.7-2.1l-2.8,2.8Z"/>
      <path class="st5" d="M90.4,283.5c-1-.6-1.9-1.3-2.7-2.1l-2.8,2.8c1.1,1.1,2.3,2,3.6,2.7l2-3.5Z"/>
    </g>
    <g>
      <g>
        <path class="st0" d="M89.5,288.8c2.6,1.2,5.4,1.7,8.1,1.9l.4-6.2c-2.1-.2-4.2-.6-5.9-1.4l-2.6,5.7Z"/>
        <path class="st1" d="M98,284.5c-2.1-.2-4.2-.6-5.9-1.4l-2.6,5.7c2.6,1.2,5.4,1.7,8.1,1.9l.4-6.2Z"/>
      </g>
      <path class="st4" d="M91.7,288.4c1.4.5,2.8.8,4.3,1l.5-4c-1.2-.1-2.4-.4-3.5-.8l-1.3,3.8Z"/>
      <path class="st5" d="M96.5,285.5c-1.2-.1-2.4-.4-3.5-.8l-1.3,3.8c1.4.5,2.8.8,4.3,1l.5-4Z"/>
    </g>
    <g>
      <g>
        <path class="st0" d="M97.6,290.7c.7,0,1.3,0,2,0h1.8s3.6,0,3.6,0v-6.2s-3.6,0-3.6,0h-1.8c-.5,0-1.1,0-1.6,0l-.4,6.2Z"/>
        <path class="st1" d="M105.1,284.6h-3.6s-1.8,0-1.8,0c-.5,0-1.1,0-1.6,0l-.4,6.2c.7,0,1.3,0,2,0h1.8s3.6,0,3.6,0v-6.2Z"/>
      </g>
      <polygon class="st4" points="99.4 289.7 103.4 289.7 103.4 285.7 99.5 285.7 99.4 289.7"/>
      <polygon class="st5" points="103.4 285.7 99.5 285.7 99.4 289.7 103.4 289.7 103.4 285.7"/>
    </g>
    <g>
      <g>
        <rect class="st0" x="105.1" y="284.6" width="7.2" height="6.2"/>
        <rect class="st0" x="105.1" y="284.6" width="7.2" height="6.2"/>
      </g>
      <rect class="st4" x="106.7" y="285.7" width="4" height="4"/>
      <rect class="st4" x="106.7" y="285.7" width="4" height="4"/>
    </g>
    <g>
      <g>
        <rect class="st0" x="112.3" y="284.6" width="7.2" height="6.2"/>
        <rect class="st0" x="112.3" y="284.6" width="7.2" height="6.2"/>
      </g>
      <rect class="st4" x="113.9" y="285.7" width="4" height="4"/>
      <rect class="st4" x="113.9" y="285.7" width="4" height="4"/>
    </g>
    <g>
      <g>
        <rect class="st0" x="119.6" y="284.6" width="7.2" height="6.2"/>
        <rect class="st0" x="119.6" y="284.6" width="7.2" height="6.2"/>
      </g>
      <rect class="st4" x="121.2" y="285.7" width="4" height="4"/>
      <rect class="st4" x="121.2" y="285.7" width="4" height="4"/>
    </g>
    <g>
      <g>
        <rect class="st0" x="126.8" y="284.6" width="7.2" height="6.2"/>
        <rect class="st0" x="126.8" y="284.6" width="7.2" height="6.2"/>
      </g>
      <rect class="st4" x="128.4" y="285.7" width="4" height="4"/>
      <rect class="st4" x="128.4" y="285.7" width="4" height="4"/>
    </g>
    <g>
      <g>
        <rect class="st0" x="134" y="284.6" width="7.2" height="6.2"/>
        <rect class="st0" x="134" y="284.6" width="7.2" height="6.2"/>
      </g>
      <rect class="st4" x="135.7" y="285.7" width="4" height="4"/>
      <rect class="st4" x="135.7" y="285.7" width="4" height="4"/>
    </g>
    <g>
      <g>
        <rect class="st0" x="141.3" y="284.6" width="7.2" height="6.2"/>
        <rect class="st0" x="141.3" y="284.6" width="7.2" height="6.2"/>
      </g>
      <rect class="st4" x="142.9" y="285.7" width="4" height="4"/>
      <rect class="st4" x="142.9" y="285.7" width="4" height="4"/>
    </g>
    <g>
      <g>
        <rect class="st0" x="148.5" y="284.6" width="7.2" height="6.2"/>
        <rect class="st0" x="148.5" y="284.6" width="7.2" height="6.2"/>
      </g>
      <rect class="st4" x="150.2" y="285.7" width="4" height="4"/>
      <rect class="st4" x="150.2" y="285.7" width="4" height="4"/>
    </g>
    <g>
      <g>
        <rect class="st0" x="156" y="284.6" width="7.2" height="6.2"/>
        <rect class="st0" x="156" y="284.6" width="7.2" height="6.2"/>
      </g>
      <rect class="st4" x="157.6" y="285.7" width="4" height="4"/>
      <rect class="st4" x="157.6" y="285.7" width="4" height="4"/>
    </g>
    <g>
      <g>
        <rect class="st0" x="163.2" y="284.6" width="7.2" height="6.2"/>
        <rect class="st0" x="163.2" y="284.6" width="7.2" height="6.2"/>
      </g>
      <rect class="st4" x="164.8" y="285.7" width="4" height="4"/>
      <rect class="st4" x="164.8" y="285.7" width="4" height="4"/>
    </g>
    <g>
      <g>
        <rect class="st0" x="170.5" y="284.6" width="7.2" height="6.2"/>
        <rect class="st0" x="170.5" y="284.6" width="7.2" height="6.2"/>
      </g>
      <rect class="st4" x="172.1" y="285.7" width="4" height="4"/>
      <rect class="st4" x="172.1" y="285.7" width="4" height="4"/>
    </g>
    <g>
      <g>
        <rect class="st0" x="177.7" y="284.6" width="7.2" height="6.2"/>
        <rect class="st0" x="177.7" y="284.6" width="7.2" height="6.2"/>
      </g>
      <rect class="st4" x="179.3" y="285.7" width="4" height="4"/>
      <rect class="st4" x="179.3" y="285.7" width="4" height="4"/>
    </g>
    <g>
      <g>
        <rect class="st0" x="184.9" y="284.6" width="7.2" height="6.2"/>
        <rect class="st0" x="184.9" y="284.6" width="7.2" height="6.2"/>
      </g>
      <rect class="st4" x="186.6" y="285.7" width="4" height="4"/>
      <rect class="st4" x="186.6" y="285.7" width="4" height="4"/>
    </g>
    <g>
      <g>
        <rect class="st0" x="192.2" y="284.6" width="7.2" height="6.2"/>
        <rect class="st0" x="192.2" y="284.6" width="7.2" height="6.2"/>
      </g>
      <rect class="st4" x="193.8" y="285.7" width="4" height="4"/>
      <rect class="st4" x="193.8" y="285.7" width="4" height="4"/>
    </g>
    <g>
      <g>
        <rect class="st0" x="199.4" y="284.6" width="7.2" height="6.2"/>
        <rect class="st0" x="199.4" y="284.6" width="7.2" height="6.2"/>
      </g>
      <rect class="st4" x="201.1" y="285.7" width="4" height="4"/>
      <rect class="st4" x="201.1" y="285.7" width="4" height="4"/>
    </g>
    <g>
      <g>
        <rect class="st0" x="206.7" y="284.6" width="7.2" height="6.2"/>
        <rect class="st0" x="206.7" y="284.6" width="7.2" height="6.2"/>
      </g>
      <rect class="st4" x="208.3" y="285.7" width="4" height="4"/>
      <rect class="st4" x="208.3" y="285.7" width="4" height="4"/>
    </g>
    <g>
      <g>
        <rect class="st0" x="213.9" y="284.6" width="7.2" height="6.2"/>
        <rect class="st0" x="213.9" y="284.6" width="7.2" height="6.2"/>
      </g>
      <rect class="st4" x="215.6" y="285.7" width="4" height="4"/>
      <rect class="st4" x="215.6" y="285.7" width="4" height="4"/>
    </g>
    <g>
      <g>
        <rect class="st0" x="221.4" y="284.6" width="7.2" height="6.2"/>
        <rect class="st0" x="221.4" y="284.6" width="7.2" height="6.2"/>
      </g>
      <rect class="st4" x="223" y="285.7" width="4" height="4"/>
      <rect class="st4" x="223" y="285.7" width="4" height="4"/>
    </g>
    <g>
      <g>
        <rect class="st0" x="228.6" y="284.6" width="7.2" height="6.2"/>
        <rect class="st0" x="228.6" y="284.6" width="7.2" height="6.2"/>
      </g>
      <rect class="st4" x="230.2" y="285.7" width="4" height="4"/>
      <rect class="st4" x="230.2" y="285.7" width="4" height="4"/>
    </g>
    <g>
      <g>
        <rect class="st0" x="235.8" y="284.6" width="7.2" height="6.2"/>
        <rect class="st0" x="235.8" y="284.6" width="7.2" height="6.2"/>
      </g>
      <rect class="st4" x="237.5" y="285.7" width="4" height="4"/>
      <rect class="st4" x="237.5" y="285.7" width="4" height="4"/>
    </g>
    <g>
      <g>
        <rect class="st0" x="243.1" y="284.6" width="7.2" height="6.2"/>
        <rect class="st0" x="243.1" y="284.6" width="7.2" height="6.2"/>
      </g>
      <rect class="st4" x="244.7" y="285.7" width="4" height="4"/>
      <rect class="st4" x="244.7" y="285.7" width="4" height="4"/>
    </g>
    <g>
      <g>
        <rect class="st0" x="250.3" y="284.6" width="7.2" height="6.2"/>
        <rect class="st0" x="250.3" y="284.6" width="7.2" height="6.2"/>
      </g>
      <rect class="st4" x="252" y="285.7" width="4" height="4"/>
      <rect class="st4" x="252" y="285.7" width="4" height="4"/>
    </g>
    <g>
      <g>
        <rect class="st0" x="257.6" y="284.6" width="7.2" height="6.2"/>
        <rect class="st0" x="257.6" y="284.6" width="7.2" height="6.2"/>
      </g>
      <rect class="st4" x="259.2" y="285.7" width="4" height="4"/>
      <rect class="st4" x="259.2" y="285.7" width="4" height="4"/>
    </g>
  </g>
  <g>
    <path class="st3" d="M864.8,95.1h122.1c11.2,0,20.3,9.1,20.3,20.3v122.1c0,11.2-9.1,20.3-20.3,20.3h-122.1c-11.2,0-20.3-9.1-20.3-20.3v-122.1c0-11.2,9.1-20.3,20.3-20.3Z"/>
    <g>
      <g>
        <path class="st6" d="M880.7,236.3l13.1-20.6c.2-.4.7-.6,1.1-.6h1.2c.5,0,.9.2,1.1.6l13.1,20.6h-4.4l-10.4-16.4-4.3,6.8h8.2l-2.2,3.5h-8.2l-3.9,6.1h-4.4Z"/>
        <path class="st6" d="M935.5,215.1l-13.1,20.6c-.2.4-.7.6-1.1.6h-1.2c-.5,0-.9-.2-1.1-.6l-13.1-20.6h4.4l10.4,16.4,10.4-16.4h4.4Z"/>
        <path class="st6" d="M939.2,236.3v-21.2c.4,0,4.1,0,9.3,0,2.5,0,3.9,0,5.7,0,6.5,0,11.4,4.6,11.4,10.6,0,6-5,10.6-11.5,10.6h-8.6l2.9-4c2,0,4,0,6,0,.6,0,1.2,0,1.7-.2,3.2-.9,5.5-3.8,5.2-6.8-.4-3.5-3.1-5.9-6.8-6.1-1.7,0-1.5,0-3.9,0-.7,0-1.4,0-2.1,0h-5.1v17.1h-4.3Z"/>
      </g>
      <g>
        <path class="st6" d="M936.7,133.2s0,0,0,0c-.9,0-1.7,0-2.6,0-.4,0-.5-.1-.6-.5-.2-.9-.6-1.8-1.1-2.6-.2-.2-.1-.4,0-.6.6-.6,1.3-1.3,1.9-1.9.2-.2.2-.3,0-.5-.7-.7-1.4-1.3-2-2-.2-.2-.4-.2-.6,0-.6.6-1.3,1.3-1.9,1.9-.2.2-.3.2-.6,0-.8-.5-1.8-.9-2.7-1.1-.3,0-.4-.2-.4-.5,0-.9,0-1.7,0-2.6,0-.3-.1-.4-.4-.4-.9,0-1.8,0-2.7,0-.4,0-.5.1-.5.5,0,.8,0,1.7,0,2.5,0,.3,0,.5-.4.6-.9.2-1.8.6-2.6,1.1-.2.2-.4.2-.6,0-.6-.6-1.3-1.2-1.9-1.9-.2-.2-.4-.2-.6,0-.6.7-1.3,1.3-1.9,1.9-.2.2-.2.4,0,.6.6.6,1.2,1.2,1.9,1.8.2.2.3.4.1.7-.5.8-.9,1.7-1.1,2.6,0,.3-.2.4-.5.4-.9,0-1.8,0-2.7,0-.3,0-.4,0-.4.4,0,.9,0,1.9,0,2.8,0,.3.1.4.4.4.9,0,1.8,0,2.7,0,.3,0,.4.1.5.4.2,1,.6,1.9,1.1,2.7.2.2.1.4,0,.6-.6.6-1.2,1.2-1.9,1.8-.2.2-.3.4,0,.6.7.6,1.3,1.3,1.9,1.9.2.2.4.2.6,0,.6-.6,1.3-1.3,1.9-1.9.2-.2.3-.2.6,0,.8.6,1.8.9,2.7,1.1.3,0,.4.2.4.5,0,.9,0,1.7,0,2.6,0,.3.1.4.4.4.9,0,1.8,0,2.7,0,.4,0,.5-.1.5-.5,0-.8,0-1.7,0-2.5,0-.3,0-.5.4-.6l3.3-1c.6.6,1.3,1.3,1.9,1.9.2.2.3.2.5,0,.7-.7,1.3-1.4,2-2,.2-.2.2-.4,0-.6-.6-.6-1.3-1.3-1.9-1.9-.2-.2-.2-.3-.1-.5.6-.9.9-1.8,1.2-2.8,0-.3.2-.4.5-.4.9,0,1.7,0,2.6,0,0,0,.1,0,.2,0v-3.5ZM924.4,138.8c-2.1,0-3.8-1.7-3.8-3.8,0-2.1,1.7-3.8,3.8-3.8,2.1,0,3.8,1.7,3.8,3.8,0,2.1-1.7,3.8-3.8,3.8Z"/>
        <path class="st6" d="M946.5,165.2s0,0-.1,0c-1.2,0-2.4,0-3.6,0-.5,0-.7-.2-.8-.6-.3-1.3-.8-2.6-1.5-3.7-.2-.3-.2-.5.1-.8.9-.9,1.8-1.8,2.6-2.6.3-.3.3-.4,0-.7-.9-.9-1.9-1.8-2.8-2.8-.3-.3-.5-.3-.8,0-.9.9-1.8,1.8-2.6,2.7-.3.3-.5.3-.8,0-1.2-.8-2.4-1.3-3.8-1.6-.4,0-.5-.3-.5-.7,0-1.2,0-2.4,0-3.6,0-.5-.2-.6-.6-.6-1.2,0-2.5,0-3.7,0-.5,0-.6.2-.6.7,0,1.2,0,2.3,0,3.5,0,.5,0,.7-.6.8-1.3.3-2.5.8-3.7,1.5-.3.2-.6.2-.9,0-.8-.9-1.7-1.7-2.6-2.6-.3-.3-.5-.3-.8,0-.9.9-1.8,1.8-2.7,2.7-.3.3-.3.5,0,.8.9.8,1.7,1.7,2.6,2.5.3.3.4.5.1.9-.7,1.1-1.2,2.4-1.5,3.7,0,.4-.3.6-.7.6-1.2,0-2.5,0-3.7,0-.4,0-.5.1-.5.5,0,1.3,0,2.6,0,3.9,0,.4.2.5.6.5,1.2,0,2.5,0,3.7,0,.4,0,.6.1.7.5.3,1.3.8,2.6,1.5,3.7.2.3.2.6-.1.9-.9.8-1.7,1.7-2.6,2.5-.3.3-.4.5,0,.9.9.9,1.8,1.8,2.7,2.7.3.3.5.3.8,0,.9-.9,1.8-1.8,2.6-2.7.3-.3.5-.3.8,0,1.2.8,2.4,1.3,3.8,1.6.4,0,.5.3.5.7,0,1.2,0,2.4,0,3.6,0,.5.2.6.6.6,1.2,0,2.5,0,3.7,0,.5,0,.6-.2.6-.7,0-1.2,0-2.3,0-3.5,0-.5.1-.7.6-.8l4.5-1.4c.9.9,1.8,1.8,2.6,2.7.3.3.4.3.7,0,.9-.9,1.8-1.9,2.8-2.8.3-.3.3-.5,0-.8-.9-.9-1.8-1.8-2.7-2.6-.2-.2-.3-.4-.1-.7.8-1.2,1.3-2.5,1.6-3.9,0-.4.3-.5.7-.5,1.2,0,2.4,0,3.6,0,0,0,.2,0,.2,0v-4.9ZM929.5,172.9c-2.9,0-5.3-2.4-5.3-5.3,0-2.9,2.4-5.3,5.3-5.3,2.9,0,5.3,2.4,5.3,5.3,0,2.9-2.4,5.3-5.3,5.3Z"/>
        <path class="st6" d="M912.8,150.5s0,0,0,0c-.7,0-1.5,0-2.2,0-.3,0-.4-.1-.5-.4-.2-.8-.5-1.6-1-2.3-.1-.2-.1-.3,0-.5.6-.5,1.1-1.1,1.7-1.7.2-.2.2-.3,0-.5-.6-.6-1.2-1.1-1.7-1.7-.2-.2-.3-.2-.5,0-.5.6-1.1,1.1-1.6,1.7-.2.2-.3.2-.5,0-.7-.5-1.5-.8-2.4-1-.3,0-.3-.2-.3-.4,0-.8,0-1.5,0-2.3,0-.3,0-.4-.4-.4-.8,0-1.5,0-2.3,0-.3,0-.4.1-.4.4,0,.7,0,1.5,0,2.2,0,.3,0,.4-.4.5-.8.2-1.6.5-2.3.9-.2.1-.4.1-.5,0-.5-.6-1.1-1.1-1.6-1.6-.2-.2-.3-.2-.5,0-.5.6-1.1,1.1-1.7,1.7-.2.2-.2.3,0,.5.5.5,1.1,1.1,1.6,1.6.2.2.2.3,0,.6-.5.7-.8,1.5-.9,2.3,0,.3-.2.4-.5.4-.8,0-1.5,0-2.3,0-.2,0-.3,0-.3.3,0,.8,0,1.6,0,2.4,0,.3,0,.3.3.3.8,0,1.5,0,2.3,0,.3,0,.4,0,.4.3.2.8.5,1.6,1,2.3.1.2.1.4,0,.5-.5.5-1.1,1.1-1.6,1.6-.2.2-.2.3,0,.5.6.5,1.1,1.1,1.7,1.7.2.2.3.2.5,0,.5-.6,1.1-1.1,1.6-1.7.2-.2.3-.2.5,0,.7.5,1.5.8,2.4,1,.3,0,.3.2.3.4,0,.8,0,1.5,0,2.3,0,.3,0,.4.4.4.8,0,1.5,0,2.3,0,.3,0,.4-.1.4-.4,0-.7,0-1.5,0-2.2,0-.3,0-.4.4-.5l2.8-.9c.5.6,1.1,1.1,1.6,1.7.2.2.3.2.4,0,.6-.6,1.1-1.2,1.7-1.7.2-.2.2-.3,0-.5-.6-.5-1.1-1.1-1.7-1.7-.1-.1-.2-.3,0-.4.5-.7.8-1.6,1-2.4,0-.2.2-.3.4-.3.7,0,1.5,0,2.2,0,0,0,.1,0,.1,0v-3.1ZM902.2,155.3c-1.8,0-3.3-1.5-3.3-3.3,0-1.8,1.5-3.3,3.3-3.3,1.8,0,3.3,1.5,3.3,3.3,0,1.8-1.5,3.3-3.3,3.3Z"/>
      </g>
      <polygon class="st6" points="974 129.6 964.5 150 945.9 137.3 974 129.6"/>
      <path class="st6" d="M933.1,192.7h0s0,0,0,0h0s0,0,0,0h0s0,0,0,0h0s0,0,0,0c-.9.2-1.8.4-2.6.6h0s0,0,0,0h0c0,0-.1,0-.2,0h0s0,0,0,0h0s0,0,0,0h0s0,0,0,0h0s0,0,0,0h0s0,0-.1,0h0s0,0,0,0h0s0,0,0,0h0s0,0,0,0h0s0,0,0,0h0s0,0,0,0h0s0,0,0,0h0s0,0,0,0h0s0,0,0,0h0s0,0,0,0h0s0,0,0,0h0s0,0,0,0h0s0,0,0,0h0s0,0,0,0h0s0,0,0,0h0s0,0,0,0h0s0,0,0,0h0s0,0,0,0h0s0,0,0,0h0s0,0,0,0h0s0,0,0,0h0s0,0,0,0h0s0,0,0,0h0s0,0,0,0h0s0,0,0,0h0s0,0,0,0h0s0,0,0,0h0s0,0,0,0h0s0,0,0,0h0s0,0,0,0h0s0,0,0,0h0s0,0,0,0h0s0,0,0,0h0s0,0,0,0c0,0,0,0-.1,0h0s0,0,0,0h0s0,0,0,0h0s0,0,0,0h0c0,0-.1,0-.2,0h0s0,0,0,0h0c-.7.1-1.5.2-2.2.3l.5,6c2.7-.2,5.3-.7,7.9-1.4l-1.6-5.8ZM942.7,188.7s0,0-.1,0h0c-1.7,1-3.4,1.8-5.3,2.6h0s0,0,0,0h0s0,0,0,0h0s0,0,0,0h0s0,0,0,0h0s0,0-.1,0h0s0,0,0,0h0s0,0,0,0h0s0,0,0,0h0s0,0,0,0h0s0,0,0,0h0s0,0,0,0h0s0,0,0,0h0s0,0,0,0h0s0,0,0,0h0s0,0,0,0h0s0,0,0,0h0s0,0,0,0h0s0,0,0,0h0s0,0,0,0h0s0,0,0,0h0s0,0,0,0h0s0,0,0,0c0,0,0,0,0,0h0s0,0,0,0h0s0,0,0,0h0s2.1,5.7,2.1,5.7c2.5-.9,4.9-2.1,7.2-3.4l-3.1-5.2ZM950.9,182.3h0s0,0,0,0h0s0,0,0,0h0s0,0,0,0h0s0,0,0,0c0,0,0,0-.1.1h0s0,0,0,0h0s0,0,0,0h0s0,0,0,0h0s0,0,0,0h0s0,0,0,0h0s0,0,0,0h0s0,0-.1.1h0s0,0,0,0h0s0,0,0,0h0s0,0,0,0h0s0,0,0,0h0s0,0,0,0h0s0,0,0,0h0s0,0-.1.1h0s0,0,0,0h0s0,0,0,0h0s0,0,0,0h0s0,0,0,0h0s0,0,0,0h0s0,0,0,0h0s0,0-.1.1h0s0,0,0,0h0s0,0,0,0h0s0,0,0,0h0s0,0,0,0h0s0,0,0,0h0c0,0-.1.1-.2.2h0s0,0,0,0h0s0,0,0,0h0s0,0,0,0h0s0,0,0,0h0c0,0-.1.1-.2.2h0s0,0,0,0h0s0,0,0,0h0s0,0,0,0h0s0,0,0,0h0c0,0-.1.1-.2.2h0s0,0,0,0h0s0,0,0,0h0s0,0,0,0h0s0,0,0,0h0s0,0,0,0h0c0,0-.1,0-.2.1h0s0,0,0,0h0s0,0,0,0h0s0,0,0,0h0s0,0,0,0h0s0,0,0,0h0s0,0,0,0h0s0,0-.1,0h0s0,0,0,0h0s0,0,0,0h0s0,0,0,0h0s0,0,0,0h0s0,0,0,0h0s0,0,0,0h0s0,0,0,0h0s0,0-.1.1h0s0,0,0,0h0s0,0,0,0h0s0,0,0,0h0s0,0,0,0h0s0,0,0,0h0s0,0,0,0h0s0,0,0,0h0s0,0,0,0h0s0,0,0,0h0s0,0,0,0h0s0,0,0,0h0s0,0,0,0h0s0,0,0,0h0s0,0,0,0h0s0,0,0,0h0s0,0,0,0h0s0,0,0,0h0s0,0,0,0h0s0,0,0,0h0s0,0,0,0h0s0,0,0,0h0s0,0,0,0h0s0,0,0,0h0s0,0,0,0h0s0,0,0,0h0s0,0,0,0h0s0,0,0,0h0s0,0,0,0h0s0,0,0,0h0s0,0,0,0h0s0,0,0,0h0s0,0,0,0h0s0,0,0,0h0s0,0,0,0h0s0,0,0,0h0s0,0,0,0h0s0,0,0,0h0s0,0,0,0h0s0,0,0,0h0s0,0,0,0h0s0,0,0,0h0s0,0,0,0h0s0,0,0,0h0s0,0,0,0h0s0,0,0,0h0s0,0,0,0h0s0,0,0,0h0s0,0,0,0h0s0,0,0,0h0s0,0,0,0h0s0,0,0,0h0s0,0,0,0h0s0,0,0,0h0s0,0,0,0h0s0,0,0,0h0s0,0,0,0h0s0,0,0,0h0s0,0,0,0h0s0,0,0,0h0s0,0,0,0h0s0,0,0,0h0s0,0,0,0h0s0,0,0,0h0s0,0,0,0h0s0,0,0,0h0s0,0,0,0h0s0,0,0,0h0s0,0,0,0h0s0,0,0,0h0s0,0,0,0h0s0,0,0,0h0s0,0,0,0h0s0,0,0,0h0s0,0,0,0h0s0,0,0,0h0s0,0,0,0h0s0,0,0,0h0s0,0,0,0h0s0,0,0,0h0s0,0,0,0h0s0,0,0,0h0s0,0,0,0h0s0,0,0,0h0s0,0,0,0h0s0,0,0,0h0s0,0,0,0h0s0,0,0,0h0s0,0,0,0h0s0,0,0,0h0s0,0,0,0h0s0,0,0,0h0s0,0,0,0h0s0,0,0,0h0s0,0,0,0h0s0,0,0,0h0s0,0,0,0h0s0,0,0,0h0s0,0,0,0h0s0,0,0,0h0s0,0,0,0h0s0,0,0,0h0s0,0,0,0h0s0,0,0,0h0s0,0,0,0h0s0,0,0,0h0s0,0,0,0h0s0,0,0,0h0s0,0,0,0h0s0,0,0,0l3.5,4.9c2.2-1.6,4.2-3.3,6.1-5.2l-4.3-4.2ZM957.1,173.9c-.9,1.6-1.9,3.2-3.1,4.7h0s0,0,0,0h0s0,0,0,0h0s0,0,0,0h0s0,0,0,0h0s0,0,0,0h0s0,0,0,0h0s0,0,0,.1h0s0,0,0,0h0s0,0,0,0h0s0,0,0,0h0s0,0,0,0h0s0,0,0,0h0s0,0,0,0h0s0,0,0,0h0s0,0,0,0h0s0,0,0,0h0s0,0,0,0h0s0,0,0,0h0s0,0,0,0h0s0,0,0,0h0s0,0,0,0h0s0,0,0,0h0s0,0,0,0h0s0,0,0,0h0s0,0,0,0h0s0,0,0,0h0s0,0,0,0h0s0,0,0,0c0,0,0,0,0,0h0s0,0,0,0h0s0,0,0,0h0s0,0,0,0h0s0,0,0,0h0s0,0,0,0h0s0,0,0,0h0s0,0,0,0h0s0,0,0,0l4.7,3.8c1.7-2.1,3.2-4.3,4.5-6.6l-5.3-2.9ZM960.9,164.2c-.2.7-.3,1.3-.5,2h0s0,0,0,0h0s0,0,0,0h0s0,0,0,0h0s0,0,0,.1h0s0,0,0,0h0s0,0,0,0h0s0,0,0,0h0s0,0,0,0h0s0,0,0,0h0s0,0,0,0h0s0,0,0,0h0s0,0,0,0h0s0,0,0,0h0s0,0,0,0h0s0,0,0,0h0s0,0,0,0h0s0,0,0,0h0s0,0,0,0h0s0,0,0,0h0s0,0,0,0h0s0,0,0,0h0s0,0,0,0h0s0,0,0,0h0s0,0,0,0h0s0,0,0,0h0s0,0,0,0h0s0,0,0,0h0s0,0,0,0h0s0,0,0,0h0s0,0,0,0c0,0,0,0,0,0h0s0,0,0,0h0s0,0,0,0h0s0,0,0,0h0s0,0,0,0h0s0,0,0,0h0s0,0,0,0h0c0,0,0,.1,0,.2h0s0,0,0,0h0s0,0,0,0h0s0,0,0,0h0s0,0,0,0h0c0,0,0,.1,0,.2h0s0,0,0,0h0s0,0,0,0h0c-.3.9-.7,1.8-1.1,2.7h0s0,0,0,0h0s0,0,0,0h0s0,0,0,0h0s0,0,0,0l5.5,2.4c1.1-2.4,2-5,2.6-7.6l-5.9-1.4ZM962,153.9c0,1.4,0,2.7-.1,4.1h0c0,0,0,.1,0,.2h0s0,0,0,0h0s0,0,0,0h0s0,0,0,0h0s0,0,0,0h0s0,0,0,.1h0s0,0,0,0h0s0,0,0,0h0s0,0,0,0h0s0,0,0,0h0s0,0,0,0h0s0,0,0,0h0s0,0,0,0h0s0,0,0,0h0s0,0,0,0h0s0,0,0,0h0s0,0,0,0h0s0,0,0,0h0s0,0,0,0h0s0,0,0,0h0s0,0,0,0h0s0,0,0,0h0s0,0,0,0h0s0,0,0,0h0s0,0,0,0h0s0,0,0,0h0s0,0,0,0h0s0,0,0,0h0s0,0,0,0h0s0,0,0,0h0s0,0,0,0h0s0,0,0,0h0s0,0,0,0h0s0,0,0,0h0s0,0,0,0h0s0,0,0,0h0s0,0,0,0h0s0,0,0,0h0s0,0,0,0h0s0,0,0,0h0s0,0,0,0h0s0,0,0,0h0s0,0,0,0h0s0,0,0,0h0s0,0,0,0h0s0,0,0,0h0s0,0,0,0h0s0,0,0,0h0s0,0,0,0h0s0,0,0,0c0,0,0,0,0,0h0s0,0,0,0h0s0,0,0,0h0s0,0,0,0h0s0,0,0,.1h0s0,0,0,0h0s0,0,0,0h0s0,0,0,0h0c0,0,0,.1,0,.2h0s0,0,0,0h0s0,0,0,0h0c0,0,0,.1,0,.2h0s0,0,0,0h0c0,0,0,.2,0,.3l6,.9c.4-2.6.6-5.3.5-8l-6,.2Z"/>
      <path class="st6" d="M929.7,193.5c-1.8.3-3.7.5-5.6.6-21.6.7-39.6-16.3-40.3-37.9-.7-21.6,16.3-39.6,37.9-40.3,18.2-.6,33.9,11.4,38.8,28.1h6.2c-.7-2.7-1.6-5.4-2.8-7.9-2.4-5.3-5.8-10-10.1-14-4.3-4-9.2-7.1-14.6-9.2-5.6-2.2-11.6-3.2-17.7-3-6.1.2-12,1.6-17.4,4.1-5.3,2.4-10,5.8-14,10.1-4,4.3-7.1,9.2-9.2,14.6-2.2,5.6-3.2,11.6-3,17.7.2,6.1,1.6,12,4.1,17.4,2.4,5.3,5.8,10,10.1,14,4.3,4,9.2,7.1,14.6,9.2,5.6,2.2,11.6,3.2,17.7,3,2.3,0,4.5-.3,6.7-.7l-1.4-5.9Z"/>
    </g>
  </g>
  <g>
    <path class="st3" d="M20.3,95.1h122.1c11.2,0,20.3,9.1,20.3,20.3v122.1c0,11.2-9.1,20.3-20.3,20.3H20.3c-11.2,0-20.3-9.1-20.3-20.3v-122.1c0-11.2,9.1-20.3,20.3-20.3Z"/>
    <g>
      <g>
        <path class="st6" d="M31.5,221c-.2-.3-.4-.4-.8-.4s-.4,0-.5.2h0c-1.1.8-2.3,1.2-3.6,1.2s-3.2-.6-4.4-1.8-1.8-2.7-1.8-4.4.6-3.2,1.8-4.4,2.7-1.8,4.4-1.8,2.6.4,3.6,1.2h0c.2,0,.4.2.5.2.3,0,.6-.1.8-.4h0c.1-.2.2-.4.2-.7s-.2-.4-.4-.6h0c-1.4-1-3-1.5-4.7-1.5s-2.8.4-4,1.1-2.2,1.7-2.9,2.9c-.7,1.2-1.1,2.6-1.1,4s.2,2.1.6,3.1,1,1.8,1.7,2.6c.7.7,1.6,1.3,2.6,1.7,1,.4,2,.6,3.1.6,1.8,0,3.3-.5,4.7-1.5h0c.2-.2.3-.4.4-.6,0-.2,0-.4-.2-.7h0Z"/>
        <path class="st6" d="M36.3,207.9h0c-.2,0-.3-.1-.5-.1-.3,0-.5,0-.7.3-.2.2-.3.4-.3.7v14.2c0,.3,0,.5.3.7s.4.3.7.3.5,0,.7-.3c.2-.2.3-.4.3-.7v-14.2c0-.2,0-.3-.1-.5,0-.1-.2-.3-.4-.4h0Z"/>
        <path class="st6" d="M45.6,212.5c-1.6,0-2.9.6-4,1.7-1.1,1.1-1.7,2.5-1.7,4s.6,2.9,1.7,4,2.5,1.7,4,1.7,2.9-.6,4-1.7c1.1-1.1,1.7-2.5,1.7-4s-.6-2.9-1.7-4-2.4-1.7-4-1.7ZM49.5,218.2c0,1.1-.4,1.9-1.1,2.7-.7.7-1.7,1.1-2.7,1.1s-1.9-.4-2.7-1.1-1.1-1.7-1.1-2.7.4-1.9,1.1-2.7c.7-.7,1.7-1.1,2.7-1.1s1.9.4,2.7,1.1,1.1,1.7,1.1,2.7Z"/>
        <path class="st6" d="M63.7,212.5c-.3,0-.5,0-.7.3-.2.2-.3.4-.3.7v5.3c0,.9-.3,1.7-1,2.3s-1.4,1-2.3,1-1.7-.3-2.3-1-1-1.4-1-2.3v-5.3c0-.2,0-.3-.1-.5s-.2-.3-.4-.4c-.2,0-.3-.1-.5-.1-.3,0-.5,0-.7.3s-.3.4-.3.7v5.3c0,1.4.5,2.6,1.5,3.6s2.2,1.5,3.6,1.5,2.6-.5,3.6-1.5c1-1,1.5-2.2,1.5-3.6v-5.3c0-.3,0-.5-.3-.7,0-.2-.3-.3-.6-.3h0Z"/>
        <path class="st6" d="M77.9,207.8c-.3,0-.5,0-.7.3-.2.2-.3.4-.3.7v9.5c0,1.1-.4,1.9-1.1,2.7-.7.7-1.7,1.1-2.7,1.1s-1.3-.2-1.9-.5-1.1-.8-1.4-1.4-.5-1.2-.5-1.9.2-1.3.5-1.9c.4-.6.8-1.1,1.4-1.4.6-.4,1.2-.5,1.9-.5s.8,0,1.1.2c0,0,.2,0,.3,0,.4,0,.8-.2.9-.7,0-.3,0-.5,0-.7-.1-.2-.3-.4-.5-.5-.6-.2-1.2-.3-1.8-.3-1.6,0-2.9.6-4,1.7-1.1,1.1-1.7,2.5-1.7,4s.6,2.9,1.7,4,2.5,1.7,4,1.7,2.9-.6,4-1.7c1.1-1.1,1.7-2.5,1.7-4v-9.5c0-.3,0-.5-.3-.7-.1-.3-.4-.3-.6-.3h0Z"/>
        <path class="st6" d="M95,207.8h0c0,0-.2,0-.4,0-.4,0-.7.2-.9.6l-4,9.7c0,.3,0,.5,0,.7s.3.4.5.5c0,0,.2,0,.4,0,.4,0,.7-.2.9-.6l4-9.7c0-.3,0-.5,0-.7s-.3-.4-.5-.5h0Z"/>
        <path class="st6" d="M83.4,208.3c-.2-.4-.5-.6-.9-.6s-.3,0-.4,0c-.2,0-.4.3-.5.5,0,.3,0,.5,0,.7l6.1,14.2c.2.4.4.6.9.6s.3,0,.4,0h0c.2-.1.4-.3.5-.5,0-.2,0-.5,0-.7l-6.1-14.2h0Z"/>
        <path class="st6" d="M99.5,208.2c-.3,0-.5,0-.7.3-.2.2-.3.4-.3.7h0c0,.3,0,.5.3.7s.4.3.7.3.3,0,.5-.1c.2,0,.3-.2.4-.4s.1-.3.1-.5h0c0-.3,0-.5-.3-.7-.3-.2-.5-.3-.7-.3h0Z"/>
        <path class="st6" d="M99.9,212.7h0c-.1,0-.3,0-.4,0-.2,0-.4,0-.6.3-.2.2-.3.4-.3.6v9.5c0,.2,0,.4.3.6.2.2.4.3.6.3s.4,0,.6-.3c.2-.2.3-.4.3-.6v-9.5c0-.1,0-.3,0-.4,0-.2-.2-.3-.3-.3h0Z"/>
        <path class="st6" d="M116,212.6h0c-.2,0-.3-.1-.5-.1-.3,0-.5,0-.7.3-.2.2-.3.4-.3.7v9.5c0,.3,0,.5.3.7.2.2.4.3.7.3s.5,0,.7-.3c.2-.2.3-.4.3-.7v-9.5c0-.2,0-.3-.1-.5,0-.2-.2-.3-.3-.4h0Z"/>
        <path class="st6" d="M115.5,208.2c-.3,0-.5,0-.7.3-.2.2-.3.4-.3.7h0c0,.3,0,.5.3.7.2.2.4.3.7.3s.3,0,.5-.1c.2,0,.3-.2.4-.4,0-.2.1-.3.1-.5h0c0-.3,0-.5-.3-.7-.3-.2-.5-.3-.7-.3Z"/>
        <path class="st6" d="M125.4,212.5c-1.6,0-2.9.6-4,1.7-1.1,1.1-1.7,2.5-1.7,4s.6,2.9,1.7,4c1.1,1.1,2.5,1.7,4,1.7s2.9-.6,4-1.7c1.1-1.1,1.7-2.5,1.7-4s-.6-2.9-1.7-4c-1.1-1.1-2.5-1.7-4-1.7ZM129.1,218.2c0,1.1-.4,1.9-1.1,2.7s-1.7,1.1-2.7,1.1-1.9-.4-2.7-1.1-1.1-1.7-1.1-2.7.4-1.9,1.1-2.7,1.7-1.1,2.7-1.1,1.9.4,2.7,1.1,1.1,1.7,1.1,2.7Z"/>
        <path class="st6" d="M142.5,214h0c-1-1-2.2-1.5-3.6-1.5s-2.6.5-3.6,1.5c-1,1-1.5,2.2-1.5,3.6v5.3c0,.3,0,.5.3.7.2.2.4.3.7.3s.5,0,.7-.3c.2-.2.3-.4.3-.7v-5.3c0-.9.3-1.7,1-2.3s1.4-1,2.3-1,1.7.3,2.3,1,1,1.4,1,2.3v5.3c0,.3,0,.5.3.7.2.2.4.3.7.3s.5,0,.7-.3c.2-.2.3-.4.3-.7v-5.3c0-1.5-.6-2.7-1.6-3.7h0Z"/>
        <path class="st6" d="M110.5,218.3c-.6-.5-1.2-.7-1.9-.9-.1,0-.3,0-.5,0-.4,0-.8-.1-1.1-.2-.4-.1-.8-.3-1.1-.5s-.3-.6-.2-1c.2-1.1,1.6-1.2,2-1.2.5,0,1,0,1.4.1s.4.2.6.3c0,0,0,0,0,0,.2,0,.3.2.5.2.4,0,.8-.3.9-.7,0-.2,0-.4-.2-.6s-.3-.3-.5-.4h0c-.8-.4-1.7-.7-2.7-.6-1.1,0-1.9.3-2.6.7-.7.5-1.2,1.3-1.3,2.1,0,.9.2,1.7.7,2.2.2.2.4.4.8.6s.7.4,1.2.5c.4.1.7.2,1.1.3.1,0,.3,0,.4,0,.5,0,.8.2,1.1.4.4.2.6.4.7.8,0,.4,0,.8-.2,1.1-.3.4-.8.6-1.1.6-.9.3-1.9.1-2.7-.3,0,0,0,0-.1,0-.2,0-.3-.2-.5-.2-.2,0-.4,0-.6.2-.4.3-.4.8-.2,1.1.1.2.3.3.4.3h0c.2.1.4.2.6.3.4.2.9.3,1.4.3.2,0,.4,0,.7,0,.6,0,1.4,0,2.1-.4.8-.4,1.4-1.1,1.7-1.8.3-.8.2-1.7-.2-2.4,0-.4-.4-.6-.7-.9h0Z"/>
      </g>
      <path class="st6" d="M68.7,165l6.6,11.9c-.7.6-1.4,1.4-1.8,2.4l-25-5.7v-.2c0-.7-.1-1.5-.4-2.1l13.9-8.2c1.2,1.3,2.8,2.1,4.7,2.1.7,0,1.4,0,2-.2h0ZM93.5,150.9c-.4,0-.7,0-1.1-.1l-9.9,25.7c1.3.7,2.2,2,2.7,3.4l28.9-3.9c0-1.4.6-2.7,1.4-3.6l-18.8-22.3c-.9.5-2,.9-3.1.9h0ZM88.7,148.6l-16,8.6c.2.6.3,1.3.3,1.9,0,1.9-.9,3.7-2.3,4.9l6.6,11.9c.6-.2,1.3-.3,1.9-.3s.7,0,1.1.1l9.9-25.7c-.5-.4-1-1-1.5-1.5h0ZM134.7,176.3c0,9.3-7.5,16.8-16.8,16.8h-3.1l-62.4.2c-.7,0-2.1,0-2.9,0-11.9,0-21.6-9.7-21.6-21.6s9.7-21.6,21.6-21.6,4.3.3,6.3,1c4.2-12.8,16.3-22.2,30.5-22.2s31.3,13.5,32.1,30.6c9.1.2,16.3,7.7,16.3,16.8h0ZM126.6,176.3c0-3.5-2.8-6.3-6.3-6.3s-2.1.3-3.1.8l-18.8-22.2c.9-1.1,1.4-2.4,1.4-4,0-3.5-2.8-6.3-6.3-6.3s-6.3,2.8-6.3,6.3,0,1.3.3,1.9l-16,8.6c-1.2-1.4-2.9-2.4-4.9-2.4-3.5,0-6.3,2.8-6.3,6.3s.1,1.5.4,2.1l-13.9,8.2c-1.2-1.3-2.8-2.1-4.7-2.1-3.5,0-6.3,2.8-6.3,6.3s2.8,6.3,6.3,6.3,4.8-1.5,5.7-3.8l25,5.7v.2c0,3.5,2.8,6.3,6.3,6.3s6-2.7,6.3-5.9l28.9-3.9c.8,2.5,3.2,4.3,6,4.3,3.4,0,6.2-2.9,6.3-6.3h0Z"/>
    </g>
  </g>
</svg>